<svg xmlns="http://www.w3.org/2000/svg" data-name="Layer 1" viewBox="0 0 2000 2000"
    id="Onlineshoppingorderdelivery">
    <g data-name="Layer 5" fill="#acbaff" class="color000000 svgShape">
        <path fill="#e4eaff"
            d="M258.39,1556.06s-301.33-352.15,127.14-465.29S926.9,880.82,1129.47,587.6s1074.09-214.76,719.58,982Z"
            class="colore2eefc svgShape"></path>
        <rect width="328" height="393.49" x="1492.39" y="1150.19" fill="#293573"
            class="colorccdeff svgShape"></rect>
        <rect width="81" height="15" x="1512.97" y="1170.78" fill="#e4eaff"
            class="colore2eefc svgShape"></rect>
        <rect width="81" height="15" x="1610.97" y="1170.78" fill="#e4eaff"
            class="colore2eefc svgShape"></rect>
        <rect width="81" height="15" x="1706.97" y="1170.78" fill="#e4eaff"
            class="colore2eefc svgShape"></rect>
        <rect width="81" height="15" x="1513.97" y="1197.78" fill="#e4eaff"
            class="colore2eefc svgShape"></rect>
        <rect width="81" height="15" x="1611.97" y="1197.78" fill="#e4eaff"
            class="colore2eefc svgShape"></rect>
        <rect width="81" height="15" x="1707.97" y="1197.78" fill="#e4eaff"
            class="colore2eefc svgShape"></rect>
        <rect width="81" height="15" x="1513.97" y="1224.78" fill="#e4eaff"
            class="colore2eefc svgShape"></rect>
        <rect width="81" height="15" x="1611.97" y="1224.78" fill="#e4eaff"
            class="colore2eefc svgShape"></rect>
        <rect width="81" height="15" x="1707.97" y="1224.78" fill="#e4eaff"
            class="colore2eefc svgShape"></rect>
        <rect width="81" height="15" x="1514.97" y="1251.78" fill="#e4eaff"
            class="colore2eefc svgShape"></rect>
        <rect width="81" height="15" x="1612.97" y="1251.78" fill="#e4eaff"
            class="colore2eefc svgShape"></rect>
        <rect width="81" height="15" x="1708.97" y="1251.78" fill="#e4eaff"
            class="colore2eefc svgShape"></rect>
        <rect width="81" height="15" x="1515.97" y="1278.78" fill="#e4eaff"
            class="colore2eefc svgShape"></rect>
        <rect width="81" height="15" x="1613.97" y="1278.78" fill="#e4eaff"
            class="colore2eefc svgShape"></rect>
        <rect width="81" height="15" x="1709.97" y="1278.78" fill="#e4eaff"
            class="colore2eefc svgShape"></rect>
        <rect width="81" height="15" x="1515.97" y="1305.78" fill="#e4eaff"
            class="colore2eefc svgShape"></rect>
        <rect width="81" height="15" x="1613.97" y="1305.78" fill="#e4eaff"
            class="colore2eefc svgShape"></rect>
        <rect width="81" height="15" x="1709.97" y="1305.78" fill="#e4eaff"
            class="colore2eefc svgShape"></rect>
        <rect width="275" height="100" x="1515.97" y="1346.93" fill="#e4eaff"
            class="colore2eefc svgShape"></rect>
        <rect width="102" height="482.15" x="1725.75" y="1061.53" fill="#293573"
            class="colorccdeff svgShape"></rect>
        <rect width="30" height="438" x="1818.1" y="1105.68" fill="#293573"
            class="colorccdeff svgShape"></rect>
        <rect width="158" height="254" x="343.3" y="1290.68" fill="#293573"
            class="colorccdeff svgShape"></rect>
        <rect width="117.5" height="23" x="359.87" y="1315.77" fill="#e4eaff"
            class="colore2eefc svgShape"></rect>
        <rect width="117.5" height="23" x="359.87" y="1354.18" fill="#e4eaff"
            class="colore2eefc svgShape"></rect>
        <rect width="117.5" height="23" x="359.93" y="1392.6" fill="#e4eaff"
            class="colore2eefc svgShape"></rect>
        <rect width="117.5" height="23" x="359.93" y="1430.23" fill="#e4eaff"
            class="colore2eefc svgShape"></rect>
        <rect width="158" height="335" x="458.41" y="1209.68" fill="#293573"
            class="colorccdeff svgShape"></rect>
        <rect width="353.11" height="269" x="601.41" y="1275.68" fill="#293573"
            class="colorccdeff svgShape"></rect>
        <rect width="88" height="149" x="255.3" y="1395.68" fill="#293573"
            class="colorccdeff svgShape"></rect>
        <rect width="3" height="126.14" x="660.04" y="1149.55" fill="#293573"
            class="colorccdeff svgShape"></rect>
        <rect width="3" height="97.1" x="693.72" y="1178.58" fill="#293573"
            class="colorccdeff svgShape"></rect>
        <rect width="7" height="146.27" x="629.45" y="1129.41" fill="#293573"
            class="colorccdeff svgShape"></rect>
        <rect width="29" height="36.41" x="361.86" y="1254.28" fill="#293573"
            class="colorccdeff svgShape"></rect>
        <rect width="63" height="39.34" x="470.41" y="1170.34" fill="#293573"
            class="colorccdeff svgShape"></rect>
        <rect width="27" height="80.27" x="561.51" y="1129.41" fill="#293573"
            class="colorccdeff svgShape"></rect>
        <rect width="24" height="88.14" x="406.68" y="1202.55" fill="#293573"
            class="colorccdeff svgShape"></rect>
        <rect width="23.5" height="23.5" x="266.31" y="1410.18" fill="#e4eaff"
            class="colore2eefc svgShape"></rect>
        <rect width="23.5" height="23.5" x="304.81" y="1410.18" fill="#e4eaff"
            class="colore2eefc svgShape"></rect>
        <rect width="23.5" height="23.5" x="266.31" y="1449.68" fill="#e4eaff"
            class="colore2eefc svgShape"></rect>
        <rect width="23.5" height="23.5" x="304.81" y="1449.68" fill="#e4eaff"
            class="colore2eefc svgShape"></rect>
        <rect width="23.5" height="23.5" x="266.31" y="1489.18" fill="#e4eaff"
            class="colore2eefc svgShape"></rect>
        <rect width="23.5" height="23.5" x="304.81" y="1489.18" fill="#e4eaff"
            class="colore2eefc svgShape"></rect>
        <rect width="9" height="303" x="477.43" y="1230.97" fill="#e4eaff"
            class="colore2eefc svgShape"></rect>
        <rect width="9" height="303" x="517.43" y="1230.97" fill="#e4eaff"
            class="colore2eefc svgShape"></rect>
        <rect width="9" height="303" x="553.44" y="1230.97" fill="#e4eaff"
            class="colore2eefc svgShape"></rect>
        <rect width="9" height="303" x="591.45" y="1230.97" fill="#e4eaff"
            class="colore2eefc svgShape"></rect>
        <rect width="162" height="123.31" x="1330.39" y="1421.23" fill="#293573"
            class="colorccdeff svgShape"></rect>
        <rect width="6" height="6" x="1638.43" y="1513.41" fill="#293573"
            class="colorccdeff svgShape"></rect>
        <rect width="1757.93" height="60" x="133.46" y="1544.68" fill="#8794d8"
            class="color1a1a35 svgShape"></rect>
        <path fill="#a1abe6"
            d="M1428.38,496.66c0-56,44.19-101.34,98.71-101.34s98.71,45.37,98.71,101.34S1531.12,655,1531.12,655,1428.38,552.63,1428.38,496.66Z"
            class="colorf75c3d svgShape"></path>
        <circle cx="1527.09" cy="496.77" r="53.49" fill="#8794d8" class="color1a1a35 svgShape"></circle>
        <path fill="#343a5f"
            d="M520.62,819.64v628.43h1031v-321q-12.26,1.1-24.55,1.45l-5.89.13A406.79,406.79,0,0,1,1393,1110.18c-.15-.56-.29-1.13-.45-1.68l-8.65-32.48-.85-3.2q8.92-7.41,18.5-14c32.1-30.51,75.51-48.45,119.7-51,2-.11,3.93-.19,5.89-.24l2.06,0a183.73,183.73,0,0,1,22.49,1v-189Z"
            class="color38385c svgShape"></path>
        <path fill="#8794d8"
            d="M453.26 1448.07v13.2a98.36 98.36 0 0098.36 98.36h967.3a98.36 98.36 0 0098.36-98.36v-13.2zM545.17 872.31v556.13h981.92V1128.53l-5.89.13A406.79 406.79 0 011393 1110.19c-.15-.56-.29-1.13-.45-1.68l-8.65-32.48-.85-3.2q8.92-7.41 18.5-14c32.1-30.51 75.51-48.45 119.7-51 2-.11 3.93-.19 5.89-.24V872.31z"
            class="color1a1a35 svgShape"></path>
        <path fill="#ffffff"
            d="M1399.14,1059.55q-9.57,6.56-18.5,14l.85,3.2,8.65,32.48c.16.56.31,1.13.45,1.68a406.79,406.79,0,0,0,128.24,18.47v289.08H553.42V879.25h965.41v129.3C1474.65,1011.1,1431.24,1029,1399.14,1059.55Z"
            class="colorffffff svgShape"></path>
        <path fill="#f0ece5"
            d="M1012.89,1131.13a72.81,72.81,0,0,1,57-39.51l-21.06,25.69c10.08-12.36,26-20.55,41.85-18.78s30.46,14.9,31.45,30.81-14.18,31.59-29.91,29a135.1,135.1,0,0,0-80.39,11.6C1012.72,1155.8,1013.61,1141.68,1012.89,1131.13Z"
            class="colorffcbbd svgShape"></path>
        <rect width="138.08" height="204.18" x="1383.11" y="977.72" fill="#ffffff"
            class="colorffffff svgShape"></rect>
        <rect width="108.01" height="21.6" x="982.12" y="832.13" fill="#263ba2"
            class="color4c231f svgShape"></rect>
        <rect width="24.18" height="204.18" x="1527.09" y="977.72" fill="#343a5f"
            class="color38385c svgShape"></rect>
        <rect width="8.25" height="204.18" x="1518.84" y="977.72" fill="#8794d8"
            class="color1a1a35 svgShape"></rect>
        <path fill="#343a5f"
            d="M1193.47,619.71a72.79,72.79,0,0,1-25.31,35.62q-16.87,1.38-33.8,2.11a16.24,16.24,0,0,0-17.25-7.49,61.4,61.4,0,0,1-21.26.75,51.86,51.86,0,0,1-23.15-9.12l-.81-.54a12.68,12.68,0,0,0-19.06,8.34c-.12.58-.23,1.16-.32,1.74-.3,1.56-.55,3.13-.76,4.71-.08.53-.15,1.07-.22,1.61a109.78,109.78,0,0,0,7.71,56.27c-8-2.86-13.67-9.76-19.59-15.82s-13.31-11.9-21.77-11.55-13.61,15.7-15,26.95h0c-13.78-10.95-21.81-29.4-24.2-49a103.19,103.19,0,0,1,.07-25.63c6.88-31.55,35.15-57.12,71.55-61.36,36.94-4.3,70.76,14.71,84.32,44.57a239.46,239.46,0,0,1,44.9-3,49.45,49.45,0,0,1-16.81,17c11.3-.67,21.94-7.1,28.31-16.38C1191.84,619.57,1192.66,619.63,1193.47,619.71Z"
            class="color38385c svgShape"></path>
        <path fill="#f0ece5"
            d="M1095.68,798a91.28,91.28,0,0,1-68.91,3.58c5.91-8.06,12.56-15.7,16.33-24.93a42.72,42.72,0,0,0,2.68-9.78,47.36,47.36,0,0,0-3.66-26.22,46.6,46.6,0,0,1,5.27.43q16.92,15,33.83,30l.81.72A49.08,49.08,0,0,0,1095.68,798Z"
            class="colorffcbbd svgShape"></path>
        <path fill="#f0ece5"
            d="M1118,760.24a50.92,50.92,0,0,1-16.87-1.08,113.61,113.61,0,0,1-18.54-6.18c-1.84-.76-3.67-1.54-5.48-2.32-9.57-4.1-19.53-8.29-29.74-9.63a46.79,46.79,0,0,0-5.27-.43,42.37,42.37,0,0,0-5.85.2c-13.44,1.4-27.28-7.31-31.82-20a28.09,28.09,0,0,1-1.55-7.46h0c1.39-11.25,6.52-26.62,15-27s15.86,5.48,21.78,11.56,11.61,13,19.58,15.82a110.21,110.21,0,0,1-6.41-64.33,12.67,12.67,0,0,1,19.87-7.8c12.48,9,28.87,11.61,44.41,8.36a16.2,16.2,0,0,1,18.22,9.4c1,2.32,2,4.62,2.8,6.8q3.27,33.24,6.53,66.49C1146,746.74,1132.11,758.58,1118,760.24Z"
            class="colorffcbbd svgShape"></path>
        <path fill="#fafcff"
            d="M1081.93,771.12c0,.21.07.42.1.63l-.81-.72-33.83-30c10.2,1.34,20.16,5.53,29.74,9.63q2.71,1.17,5.48,2.32a47.47,47.47,0,0,0-1.07,15Q1081.68,769.58,1081.93,771.12Z"
            class="colorea5c46 svgShape"></path>
        <path fill="none" stroke="#5050b3" stroke-miterlimit="10"
            d="M737.52,1174.36q-5.68,4.88-11.09,10.12A141.82,141.82,0,0,1,737.52,1174.36Z"
            class="colorStroke4a4540 svgStroke"></path>
        <path fill="none" stroke="#5050b3" stroke-miterlimit="10"
            d="M737.52,1174.36q-5.68,4.88-11.09,10.12A141.82,141.82,0,0,1,737.52,1174.36Z"
            class="colorStroke4a4540 svgStroke"></path>
        <path fill="#7c8cec" d="M1082,771.75l-.81-.72.71.09C1082,771.33,1082,771.54,1082,771.75Z"
            class="coloreb624d svgShape"></path>
        <path fill="#343a5f"
            d="M1127.46,811.44a90.4,90.4,0,0,1-13.32,9.88,103.89,103.89,0,0,1-52.51,14.7,107.32,107.32,0,0,1-46.38-9.62q-4.29-2-8.36-4.36a91,91,0,0,1-17.55-13.26c1.65-2.56,3.31-5.12,5.17-7.68a67.74,67.74,0,0,1,10.26-11.37,80.84,80.84,0,0,0,22,11.81,91.28,91.28,0,0,0,68.91-3.58,80.13,80.13,0,0,0,17.19-11.12l3.8,6.4Q1122.06,802.33,1127.46,811.44Z"
            class="color38385c svgShape"></path>
        <path fill="#344382"
            d="M877.1,1111.75q-2.79,5-5.93,9.8c-.49.76-1,1.52-1.49,2.28.39-.75.78-1.49,1.16-2.24,1.62-3.16,3.14-6.36,4.59-9.59,34.23-77,19.15-174.13-33.45-237C904.51,934.07,918.9,1037.06,877.1,1111.75Z"
            class="colore44531 svgShape"></path>
        <path fill="#344382"
            d="M877.1 1111.75q-2.79 5-5.93 9.8l-.34 0c-3.41.39-6.82.83-10.22 1.34-46.51 6.89-92.91 26.55-123.09 51.45 38.75-33.35 87.3-54.63 137.89-62.37C876 1111.9 876.53 1111.81 877.1 1111.75zM1354.51 994.5c-22.77 15.76-38.93 39.65-49.8 65.12s-16.87 52.7-24.32 74.46C1275 1078.52 1305.46 1021.14 1354.51 994.5z"
            class="colore44531 svgShape"></path>
        <path fill="#344382"
            d="M1354.51 994.5c-22.77 15.76-38.93 39.65-49.8 65.12s-16.87 52.7-24.32 74.46C1275 1078.52 1305.46 1021.14 1354.51 994.5zM1318.42 1398.8v18.93H799.36v-16.8c.37-1.68.73-3.36 1.1-5q7.8-35.87 15.61-71.73C895 1308 968.73 1266 1021.58 1205q4.92-5.67 9.6-11.56-1.8-7.85-3.6-15.7a11.58 11.58 0 005.7-1.6l7.15-4.29q-1 18.51-2.86 36.93a823.59 823.59 0 01-14 89.23c67.21-10.47 134.42-18.11 201.64-25.73q1.29-34.3 2.71-69c.18-4.16.34-8.31.52-12.48l1.28.12c1.36 2.44 2.75 4.87 4.14 7.3q4.2 7.35 8.58 14.65c15 25.08 43.59 41.24 72.73 42l3.18 141.06C1318.38 1396.86 1318.4 1397.84 1318.42 1398.8z"
            class="colore44531 svgShape"></path>
        <path fill="none" stroke="#5050b3" stroke-miterlimit="10"
            d="M1228.53 1188.82c0 .66-.06 1.32-.08 2M1229.72 1190.92c-.43 0-.85-.08-1.28-.12 0-.66.06-1.32.08-2z"
            class="colorStroke4a4540 svgStroke"></path>
        <path fill="#a1abe6"
            d="M1525.06,805.37,1482.71,780l-14.22-8.51-121,214c-13.32-55.52-41.61-109.06-84.72-145.66-26.14-22.18-54.76-35.8-85.78-42.33a235.8,235.8,0,0,0-60.36-4.34q5.4,9.1,10.8,18.21a90.4,90.4,0,0,1-13.32,9.88,103.89,103.89,0,0,1-52.51,14.7,107.32,107.32,0,0,1-46.38-9.62q-4.29-2-8.36-4.36a91,91,0,0,1-17.55-13.26c1.65-2.56,3.31-5.12,5.17-7.68a461.52,461.52,0,0,0-76.39,9.09,561.51,561.51,0,0,0-95.2,28.6,112.79,112.79,0,0,0-65.49,69.41q-51.93,156.52-103.87,313.07c-16.27,49,24.48,108,76.09,110a357.94,357.94,0,0,0,86.41-7.12C895,1308,968.73,1266,1021.58,1205.08q4.92-5.67,9.6-11.56-1.8-7.85-3.6-15.7c-2.69-11.78-5.36-23.56-7.92-35.35-.24-1.56-.49-3.12-.73-4.68-.32-3.13-.68-6.17-1-9.21h0c.06-.13.13-.24.19-.36l-.24,0c-21.24-2.66-42.59-5.3-64-7-27.64-2.16-55.3-2.7-82.73.39-.49.76-1,1.52-1.49,2.28.39-.75.78-1.49,1.16-2.24-3.41.39-6.82.83-10.22,1.34-46.51,6.89-92.91,26.55-123.09,51.45q-5.68,4.88-11.09,10.12a140,140,0,0,1,11.09-10.12c38.75-33.35,87.3-54.63,137.89-62.37,34.23-77,19.15-174.13-33.45-237,62.54,59,76.93,162,35.13,236.73a280.61,280.61,0,0,1,75-1,259,259,0,0,1,65.73,16.86l.5.2a67.74,67.74,0,0,1,22.85-24.76,769,769,0,0,0-11.6-109.93l112.36-20.61,64.39-11.81,32.81-6q-2.07,44.24-4.12,88.42v0c-2.25,48.83-4.44,97.49-6.46,145.68v0c.39.71.79,1.39,1.19,2.1,1.36,2.44,2.75,4.87,4.14,7.3q4.2,7.35,8.58,14.65c15,25.08,43.59,41.24,72.73,42a81.46,81.46,0,0,0,10.12-.38c32.44-3.28,62-26.54,72.87-57.3l136.06-386.32C1531.16,809,1528.12,807.19,1525.06,805.37Zm-220.35,254.24c-10.88,25.46-16.87,52.7-24.32,74.46-5.4-55.55,25.08-112.93,74.12-139.58C1331.74,1010.26,1315.57,1034.14,1304.71,1059.61Z"
            class="colorf75c3d svgShape"></path>
        <rect width="390" height="354" x="938.65" y="949.11" fill="#b6bbc4"
            class="colorfebe3d svgShape"></rect>
        <rect width="95.14" height="354" x="938.65" y="949.11" fill="#7d8ef3"
            class="colorf8a23a svgShape"></rect>
        <rect width="79.67" height="32.75" x="1237.36" y="979.48" fill="#ffffff"
            class="colorffffff svgShape"></rect>
        <rect width="79.67" height="32.75" x="1238.64" y="1029.45" fill="#ffffff"
            class="colorffffff svgShape"></rect>
        <path fill="#344382"
            d="M1018.3,1127.8c-.07.12-.13.24-.19.36l-.24,0c-21.24-2.66-42.59-5.3-64-7-27.64-2.16-55.3-2.7-82.73.39,2.1-3.21,4.06-6.47,5.93-9.8a280.61,280.61,0,0,1,75-1,259,259,0,0,1,65.73,16.86Z"
            class="colore44531 svgShape"></path>
        <path fill="#f0ece5"
            d="M1582.65,774.45a308.39,308.39,0,0,0-57.59,30.91L1482.71,780a227.65,227.65,0,0,1,16.75-79c2.27-5.55,12.07-5.05,13.75.72a102.68,102.68,0,0,1,3,43.12q22.68-31.57,45.38-63.13a10.16,10.16,0,0,1,18.25,7.65c-1.76,10.2,1.92,20.5,6.11,30s9,18.93,9.88,29.24S1592.23,770.56,1582.65,774.45Z"
            class="colorffcbbd svgShape"></path>
        <path fill="none" stroke="#5050b3" stroke-miterlimit="10"
            d="M799.36 1395.9h1.1c-.37 1.68-.73 3.36-1.1 5zM1318.42 1395.9v2.91c0-1 0-1.94-.07-2.91z"
            class="colorStroke4a4540 svgStroke"></path>
        <path fill="#8794d8"
            d="M1123.91 677.29c2.94 0 5.33 5.19 5.33 11.6s-2.39 11.6-5.33 11.6-5.33-5.19-5.33-11.6S1121 677.29 1123.91 677.29zM1096.2 678.62c3.36 0 6.09 5.19 6.09 11.6s-2.73 11.6-6.09 11.6-6.09-5.19-6.09-11.6S1092.84 678.62 1096.2 678.62zM1115.7 665.93c.9-3.74 5-6.16 8.87-5.77s7.15 3.12 9 6.48a23.64 23.64 0 012.49 11.16C1132.66 669.19 1122.91 663.57 1115.7 665.93zM1093.12 660.05a27.12 27.12 0 00-29.53 32.12C1067.9 677.07 1080.16 664.48 1093.12 660.05z"
            class="color1a1a35 svgShape"></path>
        <path fill="#fafcff"
            d="M1111.64 686.93q.27 11.3.55 22.6a15.37 15.37 0 014.63-6.9c2.23-1.7 5.45-2.35 7.89-1s3.45 5.08 1.58 7.17l-9.91 11.07 6.55-11.81a3.24 3.24 0 00-4.93-4l-9.27 7.9C1109.6 704.29 1110.48 696.63 1111.64 686.93zM1081 721.9a49 49 0 0041.89 5.25 24.14 24.14 0 01-20.92 6C1094.62 731.64 1088.09 726.41 1081 721.9z"
            class="colorea5c46 svgShape"></path>
        <path fill="#f0ece5"
            d="M1080.84,1175.43a262.93,262.93,0,0,0-57.87.33L1002.51,1137a224.8,224.8,0,0,1,49-56.84c4.27-3.53,11.47,1.09,10.09,6.49a102,102,0,0,1-17.51,36.28l63.42-31.7a8.78,8.78,0,0,1,10.8,2.44,9.9,9.9,0,0,1-.48,11.6c-6,7.52-8,17.45-9.14,26.93s-1.84,19.24-6,28S1089.89,1176.38,1080.84,1175.43Z"
            class="colorffcbbd svgShape"></path>
        <path fill="#a1abe6"
            d="M914,1120.23l102.35-2.8c-4.63,10.41,1.46,22.15,6.61,32.32s9.1,23.58,1.47,32l-89.87,99.56c-9.56,10.6-30.37,5.69-34.2-8.06-7.5-26.94-15.07-54.4-14.09-82.34S898.11,1134,914,1120.23Z"
            class="colorf75c3d svgShape"></path>
        <circle cx="553.42" cy="760.53" r="208.33" fill="#293573" class="colorccdeff svgShape"></circle>
        <circle cx="553.42" cy="760.53" r="178.24" fill="#e4eaff" class="colore2eefc svgShape"></circle>
        <circle cx="553.42" cy="760.53" r="19" fill="#293573" class="colorccdeff svgShape"></circle>
        <path fill="#293573"
            d="M549.28 731.64v-118a5 5 0 015-5h0a5 5 0 015 5v118a5 5 0 01-5 5h0A5 5 0 01549.28 731.64zM524.28 765.53h-118a5 5 0 01-5-5h0a5 5 0 015-5h118a5 5 0 015 5h0A5 5 0 01524.28 765.53z"
            class="colorccdeff svgShape"></path>
        <path fill="#a1abe6"
            d="M1140.69,645.48l-44.84,5.22-44.1,5.13-8.56,1-64.5,7.51-.71.08c-.14-.89-.26-1.79-.37-2.68a69.44,69.44,0,0,1,1.15-23c6.88-31.55,35.15-57.12,71.55-61.36,36.94-4.3,70.76,14.71,84.32,44.57a69.86,69.86,0,0,1,5.8,20.87C1140.54,643.68,1140.62,644.58,1140.69,645.48Z"
            class="colorf75c3d svgShape"></path>
        <path fill="#344382"
            d="M1224.45,636.56a14.83,14.83,0,0,1-12.42,14q-21.85,3-43.87,4.79-16.87,1.38-33.8,2.11c-27.54,1.21-55.19,1.16-82.83,0-2.89-.12-5.79-.25-8.68-.4l.34-.22c3.06-2,6.17-3.89,9.32-5.7q9.45-5.52,19.38-10.08a241.8,241.8,0,0,1,107.64-22.13q5.76.15,11.5.59c.81.07,1.63.13,2.44.21q9.57.82,19,2.45A14.83,14.83,0,0,1,1224.45,636.56Z"
            class="colore44531 svgShape"></path>
        <path fill="#a1abe6"
            d="M1175.37,1171.3l21.27,60.24c26.78-40.24,71.38-70.56,121.71-82.71l-143.17,128C1175.46,1242.62,1175.73,1208.41,1175.37,1171.3Z"
            class="colorf75c3d svgShape"></path>
    </g>
</svg>