<svg xmlns="http://www.w3.org/2000/svg" data-name="Layer 1" viewBox="0 0 2000 2000"
    id="Deliverypersonholdingpackage">
    <path fill="#e4eaff"
        d="M214.21,1681.47s-301.33-352.15,127.14-465.29,541.37-210,743.93-503.17,1074.09-214.76,719.59,982Z"
        class="colore2eefc svgShape"></path>
    <path fill="#e4eaff"
        d="M333.06,992.41c280.88,6.78,560.07-147.65,703.59-389.18,27.71-46.64,16.68-112.59-24.7-147.67s-108.25-35.17-149.72-.19c-68.65,57.89-159.68,80.71-248,96.79S434.74,579.92,354.87,621,207.06,740.66,208.31,830.45,302.36,991.67,333.06,992.41Z"
        class="colore2eefc svgShape"></path>
    <rect width="328" height="393.49" x="1448.21" y="1275.6" fill="#acbaff"
        class="colorccdeff svgShape"></rect>
    <rect width="81" height="15" x="1468.79" y="1296.19" fill="#e4eaff" class="colore2eefc svgShape"></rect>
    <rect width="81" height="15" x="1566.79" y="1296.19" fill="#e4eaff" class="colore2eefc svgShape"></rect>
    <rect width="81" height="15" x="1662.79" y="1296.19" fill="#e4eaff" class="colore2eefc svgShape"></rect>
    <rect width="81" height="15" x="1469.79" y="1323.19" fill="#e4eaff" class="colore2eefc svgShape"></rect>
    <rect width="81" height="15" x="1567.79" y="1323.19" fill="#e4eaff" class="colore2eefc svgShape"></rect>
    <rect width="81" height="15" x="1663.79" y="1323.19" fill="#e4eaff" class="colore2eefc svgShape"></rect>
    <rect width="81" height="15" x="1469.79" y="1350.19" fill="#e4eaff" class="colore2eefc svgShape"></rect>
    <rect width="81" height="15" x="1567.79" y="1350.19" fill="#e4eaff" class="colore2eefc svgShape"></rect>
    <rect width="81" height="15" x="1663.79" y="1350.19" fill="#e4eaff" class="colore2eefc svgShape"></rect>
    <rect width="81" height="15" x="1470.79" y="1377.19" fill="#e4eaff" class="colore2eefc svgShape"></rect>
    <rect width="81" height="15" x="1568.79" y="1377.19" fill="#e4eaff" class="colore2eefc svgShape"></rect>
    <rect width="81" height="15" x="1664.79" y="1377.19" fill="#e4eaff" class="colore2eefc svgShape"></rect>
    <rect width="81" height="15" x="1471.79" y="1404.19" fill="#e4eaff" class="colore2eefc svgShape"></rect>
    <rect width="81" height="15" x="1569.79" y="1404.19" fill="#e4eaff" class="colore2eefc svgShape"></rect>
    <rect width="81" height="15" x="1665.79" y="1404.19" fill="#e4eaff" class="colore2eefc svgShape"></rect>
    <rect width="81" height="15" x="1471.79" y="1431.19" fill="#e4eaff" class="colore2eefc svgShape"></rect>
    <rect width="81" height="15" x="1569.79" y="1431.19" fill="#e4eaff" class="colore2eefc svgShape"></rect>
    <rect width="81" height="15" x="1665.79" y="1431.19" fill="#e4eaff" class="colore2eefc svgShape"></rect>
    <rect width="275" height="100" x="1471.79" y="1472.34" fill="#e4eaff"
        class="colore2eefc svgShape"></rect>
    <rect width="102" height="482.15" x="1681.56" y="1186.94" fill="#acbaff"
        class="colorccdeff svgShape"></rect>
    <rect width="30" height="438" x="1773.92" y="1231.09" fill="#acbaff"
        class="colorccdeff svgShape"></rect>
    <rect width="158" height="254" x="299.12" y="1416.1" fill="#acbaff" class="colorccdeff svgShape"></rect>
    <rect width="117.5" height="23" x="315.69" y="1441.18" fill="#e4eaff"
        class="colore2eefc svgShape"></rect>
    <rect width="117.5" height="23" x="315.69" y="1479.6" fill="#e4eaff"
        class="colore2eefc svgShape"></rect>
    <rect width="117.5" height="23" x="315.75" y="1518.01" fill="#e4eaff"
        class="colore2eefc svgShape"></rect>
    <rect width="117.5" height="23" x="315.75" y="1555.64" fill="#e4eaff"
        class="colore2eefc svgShape"></rect>
    <rect width="158" height="335" x="414.22" y="1335.1" fill="#acbaff" class="colorccdeff svgShape"></rect>
    <rect width="353.11" height="269" x="557.22" y="1401.1" fill="#acbaff"
        class="colorccdeff svgShape"></rect>
    <rect width="88" height="149" x="211.12" y="1521.1" fill="#acbaff" class="colorccdeff svgShape"></rect>
    <rect width="3" height="126.14" x="615.86" y="1274.96" fill="#acbaff"
        class="colorccdeff svgShape"></rect>
    <rect width="3" height="97.1" x="649.54" y="1304" fill="#acbaff" class="colorccdeff svgShape"></rect>
    <rect width="7" height="146.27" x="585.27" y="1254.83" fill="#acbaff"
        class="colorccdeff svgShape"></rect>
    <rect width="29" height="36.41" x="317.68" y="1379.69" fill="#acbaff"
        class="colorccdeff svgShape"></rect>
    <rect width="63" height="39.34" x="426.23" y="1295.75" fill="#acbaff"
        class="colorccdeff svgShape"></rect>
    <rect width="27" height="80.27" x="517.33" y="1254.83" fill="#acbaff"
        class="colorccdeff svgShape"></rect>
    <rect width="24" height="88.14" x="362.5" y="1327.96" fill="#acbaff"
        class="colorccdeff svgShape"></rect>
    <rect width="23.5" height="23.5" x="222.12" y="1535.6" fill="#e4eaff"
        class="colore2eefc svgShape"></rect>
    <rect width="23.5" height="23.5" x="260.62" y="1535.6" fill="#e4eaff"
        class="colore2eefc svgShape"></rect>
    <rect width="23.5" height="23.5" x="222.12" y="1575.1" fill="#e4eaff"
        class="colore2eefc svgShape"></rect>
    <rect width="23.5" height="23.5" x="260.62" y="1575.1" fill="#e4eaff"
        class="colore2eefc svgShape"></rect>
    <rect width="23.5" height="23.5" x="222.12" y="1614.6" fill="#e4eaff"
        class="colore2eefc svgShape"></rect>
    <rect width="23.5" height="23.5" x="260.62" y="1614.6" fill="#e4eaff"
        class="colore2eefc svgShape"></rect>
    <rect width="9" height="303" x="433.25" y="1356.39" fill="#e4eaff" class="colore2eefc svgShape"></rect>
    <rect width="9" height="303" x="473.25" y="1356.39" fill="#e4eaff" class="colore2eefc svgShape"></rect>
    <rect width="9" height="303" x="509.26" y="1356.39" fill="#e4eaff" class="colore2eefc svgShape"></rect>
    <rect width="9" height="303" x="547.26" y="1356.39" fill="#e4eaff" class="colore2eefc svgShape"></rect>
    <rect width="158" height="254" x="703.79" y="1403.81" fill="#acbaff"
        class="colorccdeff svgShape"></rect>
    <rect width="117.5" height="23" x="720.35" y="1428.9" fill="#e4eaff"
        class="colore2eefc svgShape"></rect>
    <rect width="117.5" height="23" x="720.35" y="1467.31" fill="#e4eaff"
        class="colore2eefc svgShape"></rect>
    <rect width="117.5" height="23" x="720.42" y="1505.73" fill="#e4eaff"
        class="colore2eefc svgShape"></rect>
    <rect width="117.5" height="23" x="720.42" y="1543.36" fill="#e4eaff"
        class="colore2eefc svgShape"></rect>
    <rect width="158" height="335" x="818.89" y="1322.81" fill="#acbaff"
        class="colorccdeff svgShape"></rect>
    <rect width="353.11" height="269" x="961.89" y="1388.81" fill="#acbaff"
        class="colorccdeff svgShape"></rect>
    <rect width="88" height="149" x="615.79" y="1508.81" fill="#acbaff" class="colorccdeff svgShape"></rect>
    <rect width="3" height="126.14" x="1020.52" y="1262.68" fill="#acbaff"
        class="colorccdeff svgShape"></rect>
    <rect width="3" height="97.1" x="1054.21" y="1291.71" fill="#acbaff"
        class="colorccdeff svgShape"></rect>
    <rect width="7" height="146.27" x="989.94" y="1242.54" fill="#acbaff"
        class="colorccdeff svgShape"></rect>
    <rect width="29" height="36.41" x="722.35" y="1367.41" fill="#acbaff"
        class="colorccdeff svgShape"></rect>
    <rect width="63" height="39.34" x="830.89" y="1283.47" fill="#acbaff"
        class="colorccdeff svgShape"></rect>
    <rect width="27" height="80.27" x="922" y="1242.54" fill="#acbaff" class="colorccdeff svgShape"></rect>
    <rect width="24" height="88.14" x="767.17" y="1315.68" fill="#acbaff"
        class="colorccdeff svgShape"></rect>
    <rect width="23.5" height="23.5" x="626.79" y="1523.31" fill="#e4eaff"
        class="colore2eefc svgShape"></rect>
    <rect width="23.5" height="23.5" x="665.29" y="1523.31" fill="#e4eaff"
        class="colore2eefc svgShape"></rect>
    <rect width="23.5" height="23.5" x="626.79" y="1562.81" fill="#e4eaff"
        class="colore2eefc svgShape"></rect>
    <rect width="23.5" height="23.5" x="665.29" y="1562.81" fill="#e4eaff"
        class="colore2eefc svgShape"></rect>
    <rect width="23.5" height="23.5" x="626.79" y="1602.31" fill="#e4eaff"
        class="colore2eefc svgShape"></rect>
    <rect width="23.5" height="23.5" x="665.29" y="1602.31" fill="#e4eaff"
        class="colore2eefc svgShape"></rect>
    <rect width="9" height="303" x="837.92" y="1344.1" fill="#e4eaff" class="colore2eefc svgShape"></rect>
    <rect width="9" height="303" x="877.92" y="1344.1" fill="#e4eaff" class="colore2eefc svgShape"></rect>
    <rect width="9" height="303" x="913.93" y="1344.1" fill="#e4eaff" class="colore2eefc svgShape"></rect>
    <rect width="9" height="303" x="951.93" y="1344.1" fill="#e4eaff" class="colore2eefc svgShape"></rect>
    <rect width="158" height="254" x="1108.26" y="1381.65" fill="#acbaff"
        class="colorccdeff svgShape"></rect>
    <rect width="117.5" height="23" x="1124.82" y="1406.74" fill="#e4eaff"
        class="colore2eefc svgShape"></rect>
    <rect width="117.5" height="23" x="1124.82" y="1445.15" fill="#e4eaff"
        class="colore2eefc svgShape"></rect>
    <rect width="117.5" height="23" x="1124.88" y="1483.56" fill="#e4eaff"
        class="colore2eefc svgShape"></rect>
    <rect width="117.5" height="23" x="1124.88" y="1521.2" fill="#e4eaff"
        class="colore2eefc svgShape"></rect>
    <rect width="158" height="335" x="1223.36" y="1300.65" fill="#acbaff"
        class="colorccdeff svgShape"></rect>
    <rect width="353.11" height="269" x="1366.36" y="1366.65" fill="#acbaff"
        class="colorccdeff svgShape"></rect>
    <rect width="88" height="149" x="1020.26" y="1486.65" fill="#acbaff"
        class="colorccdeff svgShape"></rect>
    <rect width="3" height="126.14" x="1424.99" y="1240.51" fill="#acbaff"
        class="colorccdeff svgShape"></rect>
    <rect width="3" height="97.1" x="1458.67" y="1269.55" fill="#acbaff"
        class="colorccdeff svgShape"></rect>
    <rect width="7" height="146.27" x="1394.4" y="1220.38" fill="#acbaff"
        class="colorccdeff svgShape"></rect>
    <rect width="29" height="36.41" x="1126.81" y="1345.24" fill="#acbaff"
        class="colorccdeff svgShape"></rect>
    <rect width="63" height="39.34" x="1235.36" y="1261.31" fill="#acbaff"
        class="colorccdeff svgShape"></rect>
    <rect width="27" height="80.27" x="1326.47" y="1220.38" fill="#acbaff"
        class="colorccdeff svgShape"></rect>
    <rect width="24" height="88.14" x="1171.63" y="1293.52" fill="#acbaff"
        class="colorccdeff svgShape"></rect>
    <rect width="23.5" height="23.5" x="1031.26" y="1501.15" fill="#e4eaff"
        class="colore2eefc svgShape"></rect>
    <rect width="23.5" height="23.5" x="1069.76" y="1501.15" fill="#e4eaff"
        class="colore2eefc svgShape"></rect>
    <rect width="23.5" height="23.5" x="1031.26" y="1540.65" fill="#e4eaff"
        class="colore2eefc svgShape"></rect>
    <rect width="23.5" height="23.5" x="1069.76" y="1540.65" fill="#e4eaff"
        class="colore2eefc svgShape"></rect>
    <rect width="23.5" height="23.5" x="1031.26" y="1580.15" fill="#e4eaff"
        class="colore2eefc svgShape"></rect>
    <rect width="23.5" height="23.5" x="1069.76" y="1580.15" fill="#e4eaff"
        class="colore2eefc svgShape"></rect>
    <rect width="9" height="303" x="1242.38" y="1321.94" fill="#e4eaff" class="colore2eefc svgShape"></rect>
    <rect width="9" height="303" x="1282.38" y="1321.94" fill="#e4eaff" class="colore2eefc svgShape"></rect>
    <rect width="9" height="303" x="1318.39" y="1321.94" fill="#e4eaff" class="colore2eefc svgShape"></rect>
    <rect width="9" height="303" x="1356.4" y="1321.94" fill="#e4eaff" class="colore2eefc svgShape"></rect>
    <rect width="162" height="123.31" x="1286.21" y="1546.64" fill="#acbaff"
        class="colorccdeff svgShape"></rect>
    <rect width="6" height="6" x="1594.25" y="1638.83" fill="#acbaff" class="colorccdeff svgShape"></rect>
    <rect width="70" height="1065.66" x="326.52" y="599.54" fill="#293573"
        class="colorec7f37 svgShape"></rect>
    <rect width="279.28" height="87.88" x="288.33" y="718.38" fill="#8794d8"
        class="colorfebe3d svgShape"></rect>
    <polygon fill="#8794d8" points="155.42 756.17 288.33 669.94 288.33 842.39 155.42 756.17"
        class="colorfebe3d svgShape"></polygon>
    <rect width="70" height="17" x="326.52" y="806.26" fill="#a1abe6" class="colora54545 svgShape"></rect>
    <rect width="279.28" height="7" x="288.33" y="805.06" fill="#263ba2"
        class="colorf8a23a svgShape"></rect>
    <rect width="279.28" height="9.29" x="288.33" y="718.38" fill="#fafcff"
        class="colorfce373 svgShape"></rect>
    <path fill="#e4eaff"
        d="M1364.35,487.06l-24.84-8c10-29.64,53.92-40.47,76.5-18.84-11.85-14.18-2-39.93,16.29-42.59s35,19.25,27.71,36.21c14.15-16.31,44.75-12.51,54.47,6.77,11.67-14.46,37.21-14,48.37.84a281.92,281.92,0,0,1,156.28,15.26l-443.26,21.51C1307.79,492.41,1339.71,486.58,1364.35,487.06Z"
        class="colore2eefc svgShape"></path>
    <rect width="439.71" height="213.57" x="1421.52" y="1331.46" fill="#8794d8"
        class="colorfebe3d svgShape"></rect>
    <rect width="107.26" height="213.57" x="1421.52" y="1331.46" fill="#263ba2"
        class="colorf8a23a svgShape"></rect>
    <rect width="258.8" height="201.18" x="1475.15" y="1130.27" fill="#8794d8"
        class="colorfebe3d svgShape"></rect>
    <rect width="65.33" height="201.18" x="1475.15" y="1130.27" fill="#263ba2"
        class="colorf8a23a svgShape"></rect>
    <polygon fill="#293573" points="1474.48 1331.95 1540.47 1325.95 1674.3 1332.87 1474.48 1331.95"
        class="colorec7f37 svgShape"></polygon>
    <rect width="89.83" height="19.76" x="1758.3" y="1349.78" fill="#ffffff"
        class="colorffffff svgShape"></rect>
    <rect width="89.83" height="19.76" x="1759.74" y="1379.93" fill="#ffffff"
        class="colorffffff svgShape"></rect>
    <rect width="62.82" height="19.76" x="1661.75" y="1141.86" fill="#ffffff"
        class="colorffffff svgShape"></rect>
    <rect width="62.82" height="19.76" x="1661.75" y="1168.87" fill="#ffffff"
        class="colorffffff svgShape"></rect>
    <rect width="439.71" height="213.57" x="1421.52" y="1331.46" fill="#8794d8"
        class="colorfebe3d svgShape"></rect>
    <rect width="107.26" height="213.57" x="1421.52" y="1331.46" fill="#263ba2"
        class="colorf8a23a svgShape"></rect>
    <rect width="258.8" height="201.18" x="1475.15" y="1130.27" fill="#8794d8"
        class="colorfebe3d svgShape"></rect>
    <rect width="65.33" height="201.18" x="1475.15" y="1130.27" fill="#263ba2"
        class="colorf8a23a svgShape"></rect>
    <polygon fill="#293573" points="1474.48 1331.95 1540.47 1325.95 1674.3 1332.87 1474.48 1331.95"
        class="colorec7f37 svgShape"></polygon>
    <rect width="89.83" height="19.76" x="1758.3" y="1349.78" fill="#ffffff"
        class="colorffffff svgShape"></rect>
    <rect width="89.83" height="19.76" x="1759.74" y="1379.93" fill="#ffffff"
        class="colorffffff svgShape"></rect>
    <rect width="62.82" height="19.76" x="1661.75" y="1141.86" fill="#ffffff"
        class="colorffffff svgShape"></rect>
    <rect width="62.82" height="19.76" x="1661.75" y="1168.87" fill="#ffffff"
        class="colorffffff svgShape"></rect>
    <path fill="#e4eaff"
        d="M494.37,297l24.29-9.52c-11.8-29-56.36-37-77.53-14,10.93-14.9-.52-40-18.94-41.47s-33.76,21.42-25.38,37.88c-15.15-15.39-45.45-9.66-53.94,10.19-12.56-13.7-38-11.65-48.22,3.88a281.8,281.8,0,0,0-155,25.08l443.74-6.45C551.16,298.74,518.93,294.92,494.37,297Z"
        class="colore2eefc svgShape"></path>
    <rect width="1757.93" height="60" x="121.03" y="1667.03" fill="#7c8cec"
        class="color1a1a35 svgShape"></rect>
    <path fill="#344382"
        d="M1512.81,887.28c0-56,44.19-101.34,98.71-101.34s98.71,45.37,98.71,101.34-94.68,158.38-94.68,158.38S1512.81,943.25,1512.81,887.28Z"
        class="colorf75c3d svgShape"></path>
    <circle cx="1611.52" cy="887.39" r="53.49" fill="#7c8cec" class="color1a1a35 svgShape"></circle>
    <path fill="#7c8cec"
        d="M1383.86,1559h0a14,14,0,0,1,14-14h455a14,14,0,0,1,14,14h0a14,14,0,0,1-14,14h-455A14,14,0,0,1,1383.86,1559Z"
        class="color1a1a35 svgShape"></path>
    <path fill="#7d8ef3"
        d="M1275.86,907.64h0a14,14,0,0,1,14-14h80a14,14,0,0,1,14,14h0a14,14,0,0,1-14,14h-80A14,14,0,0,1,1275.86,907.64Z"
        class="colore44531 svgShape"></path>
    <path fill="#7c8cec"
        d="M1383.86,1585.64h0a14,14,0,0,1-14-14v-702a14,14,0,0,1,14-14h0a14,14,0,0,1,14,14v702A14,14,0,0,1,1383.86,1585.64Z"
        class="color1a1a35 svgShape"></path>
    <path fill="#344382"
        d="M1289.86,869.64h0a14,14,0,0,1,14-14h80a14,14,0,0,1,14,14h0a14,14,0,0,1-14,14h-80A14,14,0,0,1,1289.86,869.64Z"
        class="colorf75c3d svgShape"></path>
    <circle cx="1384.97" cy="1628.03" r="69" fill="#7c8cec" class="color1a1a35 svgShape"></circle>
    <circle cx="1384.97" cy="1628.03" r="44.3" fill="#343a5f"
        transform="rotate(-78.01 1384.993 1628.03)" class="color38385c svgShape"></circle>
    <path fill="#344382"
        d="M870.06,1657.3l-118.6-15.39a136.3,136.3,0,0,1,3.41-18.64q10.74-2.89,21.3-6.45a17.29,17.29,0,0,0,2.49,7.32c2.21,3.3,6.9,5.3,10.28,3.24-.51-4.85-1-9.68-1.51-14.54,1.46-.53,2.89-1.08,4.35-1.65,0,.75,0,1.5,0,2.24-.12,2.75-.35,5.55.38,8.21s2.67,5.17,5.38,5.71,5.84-1.77,5.45-4.49q-1.07-7.63-2.16-15.28c1.51-.62,3-1.26,4.48-1.9q1.26,9.32,2.5,18.66c3.11,2,7.47-.84,8.45-4.4a13.66,13.66,0,0,0-.38-7.24c-.32-1.21-.73-2.41-1.11-3.58,0-.17-.12-.35-.17-.52a23.2,23.2,0,0,1-1.32-6.51h0c1.3-.59,2.59-1.2,3.87-1.82.24.35.5.69.76,1a44.29,44.29,0,0,0,51.93,14.26c1.21-.5,2.41-1,3.56-1.64C872.34,1628,871.3,1642,870.06,1657.3Z"
        class="colorf75c3d svgShape"></path>
    <path
        d="M869.29,1666.34c-39.49-5.95-79-11.91-118.75-17.1.29-2.45.6-4.91.92-7.33q59.31,7.71,118.6,15.39C869.8,1660.26,869.55,1663.27,869.29,1666.34Z"
        fill="#5050b3" class="color000000 svgShape"></path>
    <path fill="#ffffff"
        d="M807.77 1624.33q-1.24-9.33-2.5-18.66c2.66-1.16 5.32-2.36 8-3.59a23.2 23.2 0 001.32 6.51c.05.17.12.35.17.52.38 1.17.79 2.37 1.11 3.58a13.66 13.66 0 01.38 7.24C815.24 1623.5 810.88 1626.35 807.77 1624.33zM797.5 1627.34c-2.71-.53-4.64-3.06-5.38-5.71s-.5-5.46-.38-8.21c0-.74 0-1.49 0-2.24 3-1.15 6-2.37 9-3.62q1.1 7.64 2.16 15.28C803.34 1625.57 800.2 1627.86 797.5 1627.34zM788.94 1627.38c-3.38 2.07-8.07.06-10.28-3.24a17.15 17.15 0 01-2.49-7.32q5.66-1.89 11.26-4C787.93 1617.7 788.43 1622.53 788.94 1627.38z"
        class="colorffffff svgShape"></path>
    <path fill="#f0ece5"
        d="M869.79,1615.54a44.29,44.29,0,0,1-51.93-14.26,100.65,100.65,0,0,0,7.49-36.81c18.85,5.17,37.69,10.32,55.85,15.16Q875.51,1597.58,869.79,1615.54Z"
        class="colorfbb8a5 svgShape"></path>
    <path fill="#344382"
        d="M1134.4,1588.51Q1081.69,1616.73,1029,1645a135.08,135.08,0,0,1-8.07-17.15q7-8.61,13.58-17.63a17.26,17.26,0,0,0,6.29,4.51c3.72,1.4,8.7.3,10.25-3.34l-9.69-10.95c.88-1.28,1.72-2.56,2.58-3.87.45.6.86,1.22,1.27,1.84,1.5,2.31,2.94,4.72,5.08,6.46s5.18,2.65,7.69,1.51,3.72-4.83,1.82-6.82q-5.31-5.58-10.65-11.17c.87-1.38,1.7-2.77,2.54-4.15,4.29,4.56,8.6,9.15,12.88,13.73,3.7-.17,5.59-5,4.31-8.49a13.71,13.71,0,0,0-4.52-5.67c-1-.79-2-1.54-3-2.27l-.44-.32a23.08,23.08,0,0,1-4.86-4.53h0c.71-1.24,1.41-2.48,2.09-3.73.4.14.81.27,1.22.39a44.28,44.28,0,0,0,50.54-18.6c.69-1.11,1.35-2.24,1.95-3.4C1119.19,1563.32,1126.53,1575.36,1134.4,1588.51Z"
        class="colorf75c3d svgShape"></path>
    <path
        d="M1139,1596.31c-35.59,18.12-71.18,36.24-106.55,55.15-1.19-2.17-2.37-4.35-3.52-6.5l105.43-56.45C1135.92,1591.07,1137.46,1593.66,1139,1596.31Z"
        fill="#5050b3" class="color000000 svgShape"></path>
    <path fill="#ffffff"
        d="M1064.55 1597.91l-12.88-13.73c1.49-2.5 3-5 4.38-7.55a23.32 23.32 0 004.86 4.53l.44.32c1 .73 2 1.47 3 2.27a13.65 13.65 0 014.52 5.67C1070.15 1592.89 1068.26 1597.74 1064.55 1597.91zM1058 1606.33c-2.51 1.14-5.55.21-7.69-1.51s-3.58-4.15-5.08-6.46c-.41-.61-.82-1.24-1.27-1.84 1.78-2.69 3.52-5.43 5.22-8.18q5.34 5.58 10.65 11.17C1061.67 1601.5 1060.45 1605.19 1058 1606.33zM1051 1611.34c-1.55 3.65-6.53 4.74-10.25 3.34a17.11 17.11 0 01-6.29-4.51q3.49-4.83 6.85-9.79Q1046.17 1605.88 1051 1611.34z"
        class="colorffffff svgShape"></path>
    <path fill="#f0ece5"
        d="M1109.9,1554.69a44.28,44.28,0,0,1-50.54,18.6,100.56,100.56,0,0,0-15.31-34.3c18.34-6.76,36.67-13.53,54.25-20.15Q1104.11,1536.75,1109.9,1554.69Z"
        class="colorfbb8a5 svgShape"></path>
    <polygon fill="#7c8cec"
        points="1020.9 1558.99 869.35 905.02 1027.46 954.44 1123.3 1519.15 1020.9 1558.99"
        class="color1a1a35 svgShape"></polygon>
    <polygon fill="#343a5f"
        points="807.62 1576.64 847.4 941.58 1012.95 979.18 903.53 1585.15 807.62 1576.64"
        class="color38385c svgShape"></polygon>
    <path fill="#89b2fb"
        d="M849.28,613c6.74-.39,6.34,2,11.28,6.61a21.4,21.4,0,0,1,4.46,6.75,72.34,72.34,0,0,1,6.41,38,138.93,138.93,0,0,1,43.05-26.23c-7.07-9.81-10.88-21.55-14.05-33.22a60.07,60.07,0,0,0-4-11.66,11.87,11.87,0,0,0-3.48-4.44c-2.61-1.86-6.11-1.87-9.28-1.38-8.55,1.32-16.32,5.65-23.66,10.23q-8.41,5.25-16.45,11.07c-1.87,1.35,5.88,3,5.7,5.32"
        class="colorfbb089 svgShape"></path>
    <path fill="#7d8ef3"
        d="M872.24,768.57S782,821.06,759.56,805.37c0,0-67.68-13.12-105.46-184.31q-1.67-7.51-3.25-15.45l26-10.74s4.55,5.46,11.79,14.76c19.72,25.3,59.35,79,81.25,128.16,0,0,68.88-64.88,111.94-80.13Z"
        class="colore44531 svgShape"></path>
    <path fill="#344382"
        d="M868.83,669.45c-3.73.12-5.88,5.58-3.24,8.21-5.21,1.22-7.3,7.37-8.42,12.61-16.53,77.21-14.45,157-18.46,235.85-.59,11.56-1.32,23.18-4,34.45a248.65,248.65,0,0,0,51.51-2.28c13.26-2,26.52-5,39.9-4.27,12.17.7,23.92,4.53,35.91,6.72a135.1,135.1,0,0,0,55.59-1.51c4.29-14.32,3.63-29.63,2.09-44.5-4.38-42.42-15.47-83.82-26.52-125-4.7-17.53-9.45-35.17-17.15-51.6-4.68-10-10.42-19.44-16.14-28.87L922.2,647.11c-1.09-1.79-2.34-3.72-4.34-4.37-2.86-.93-5.73,1.15-8.07,3A168.48,168.48,0,0,1,864.37,672"
        class="colorf75c3d svgShape"></path>
    <path fill="#343a5f"
        d="M918.79,625.68a522.65,522.65,0,0,0-61.17,37.93,23.28,23.28,0,0,1,1.66,23,411.78,411.78,0,0,1,73.57-49.46,181,181,0,0,0-14.93-10.92"
        class="color38385c svgShape"></path>
    <rect width="394.28" height="211.24" x="766.35" y="802.73" fill="#8794d8"
        class="colorfebe3d svgShape"></rect>
    <rect width="99.53" height="211.24" x="766.35" y="802.73" fill="#263ba2"
        class="colorf8a23a svgShape"></rect>
    <rect width="95.7" height="20.74" x="1050.64" y="814.89" fill="#ffffff"
        class="colorffffff svgShape"></rect>
    <rect width="95.7" height="20.74" x="1050.64" y="843.25" fill="#ffffff"
        class="colorffffff svgShape"></rect>
    <path fill="#7d8ef3"
        d="M901.38,644.5l19.72-7s6.66-7.39,55.49,40.08S1097.3,835.35,1097.3,835.35l-97,165.36-31.73-20.32,43.22-147S784.66,595.13,949.28,652.59"
        class="colore44531 svgShape"></path>
    <path fill="#89b2fb"
        d="M969,979.25c-7.48,2.11-13.37,6.15-20,10.08a4.61,4.61,0,0,0-2.76,3.86A109.72,109.72,0,0,1,937,1018.3a111.86,111.86,0,0,0,25.72,3.92,8.56,8.56,0,0,0,3.35-.34,7.81,7.81,0,0,0,3.28-2.86,42.17,42.17,0,0,0,5.1-8.82c9.84-2,18.95-2.47,25.85-9.5-8.77-4.16-16.54-12.47-24.8-17.53-2.27-1.39-4.32-3-6.64-4"
        class="colorfbb089 svgShape"></path>
    <path fill="#b6bbc4"
        d="M923.9,512.9c1-.21,1.9-.45,2.82-.71l.58-.17h0l-.57.17C925.79,512.44,924.85,512.69,923.9,512.9Z"
        class="colore1c2b0 svgShape"></path>
    <path fill="#78a0e8"
        d="M816 562.8a38 38 0 00.12 6.39c.95 10.36 4.18 15.42 8.34 17.37a7.89 7.89 0 00.91.37 13.53 13.53 0 007.51.21c-1-6.56-1.8-12.86-2.42-18.34-.46-3.91-.81-7.4-1-10.3-1.4 1-6.39-4.69-6.39-4.69C818.73 554.72 816.59 558.51 816 562.8zM883.94 631.56s0 0 0-.1S883.87 631.55 883.94 631.56zm-20-8.29c3.29 1 8.38-7.14 11-6.51 3.37.82 5.93 1.31 7.11 1.52l.26.05 0 .15.19-.12.22 0 0-.15c.6-.37 1.91-1.18 3.65-2.34 1.18-.77 2.56-1.72 4.07-2.79h0c2.71-1.93 10.35-1.56 13.49-4.24.6 5-.92 7.08 2.3 13.94a24.43 24.43 0 01-1.75 1.92 31.36 31.36 0 01-6.4 5 33.08 33.08 0 01-10.76 4 33.89 33.89 0 01-9.91.38 31.31 31.31 0 01-9.34-2.52c-.72-.32-.64-.84-1.33-1.21C867.7 625.68 868.65 637.49 864 623.27zM919.77 589.75a16.64 16.64 0 009.46 2.06 9.82 9.82 0 002.47-.66c4.1-1.69 7.64-6.36 9.7-16 2.2-10.34.06-14.53-3.46-15.74l-.05 0a5 5 0 01-1.53 1c-1.9 1.9-9.36 2.23-10.58 4.35-.21 1.05-.45 2.17-.71 3.35-.11.52-.23 1-.35 1.6l-.18.82-.39 1.68c0 .08 0 .16-.06.25-.24 1-.48 2.07-.74 3.13-.08.35-.17.72-.26 1.08l0 .13c-.13.55-.28 1.11-.41 1.67s-.21.84-.32 1.27C921.55 582.94 920.7 586.3 919.77 589.75z"
        class="colore88a78 svgShape"></path>
    <path fill="#f0ece5"
        d="M845.36,543.23l24.35-4.87a16.83,16.83,0,0,0-2.22-1,20.53,20.53,0,0,0-19.81,3.53h0A17.47,17.47,0,0,0,845.36,543.23Z"
        class="colorffece6 svgShape"></path>
    <path fill="#89b2fb"
        d="M829.37,558.5h0c.23,2.9.59,6.4,1,10.31.62,5.48,1.46,11.78,2.42,18.34.43,3,.89,6,1.37,9,1,6.32,5.94,12.32,12,17.49a98.35,98.35,0,0,0,12.28,8.76c2.94,1.8,5.75,3.34,8.13,4.59,3.07,1.61,5.44,2.7,6.53,3.2l.24.12.21.09.21-.07c.67-.22,2.14-.68,4.11-1.39,1.33-.47,2.9-1,4.62-1.73h0c3.09-1.22,6.71-2.77,10.41-4.62a82,82,0,0,0,13.19-8.07c5.07-3.91,9.12-8.45,10.56-13.53,1.07-3.78,2.1-7.55,3.07-11.21.93-3.45,1.78-6.81,2.56-10,.1-.43.21-.85.32-1.27s.28-1.13.41-1.67l0-.13c.08-.36.18-.73.26-1.08.26-1.08.51-2.12.74-3.13a2.27,2.27,0,0,0,.06-.25q.2-.87.39-1.68l.18-.82c.12-.55.24-1.08.35-1.6.26-1.18.5-2.31.71-3.35a1.56,1.56,0,0,0-.14.33c-.23-1.57-.46-3.15-.7-4.72-1.75-3-4.35-7.51-7.35-12.65L916,545l-2.16-3.67-1.64-2.8-1.68-2.84c-.89-1.51-1.79-3-2.69-4.53a112,112,0,0,1-10.86,7.56,17,17,0,0,0-1.89.15l.89.45a123,123,0,0,1-59.77,17.22c-1,0-2,0-3,0C833,556.56,829.5,558.64,829.37,558.5Z"
        class="colorfbb089 svgShape"></path>
    <path fill="#343a5f"
        d="M920.36 529.31a0 0 0 000 0h0zM921.65 465c-.21-.12-.42-.25-.64-.36a76.77 76.77 0 0113.51 14.15A34.73 34.73 0 00921.65 465zm-33.37 64.34l0 0h0zm7 9.65c-27.78 4.1-61.72 7.71-90.24 6.62.08.14.18.29.27.43s0 0 0 0c1.94 3.58 4.77 10.88 8.15 14.75a8.42 8.42 0 002.48 2.06.09.09 0 010-.05c.63-4.29 2.77-8.08 7-9 0 0 5 5.66 6.4 4.69h0c.13.14 3.58-1.94 3.76-1.94 1 0 2 0 3 0A123.09 123.09 0 00896 539.3zm-86.83-9.65h-8.29a0 0 0 000 0h8.3S808.44 529.32 808.44 529.31zm1.92-50.26l.42.19a76.64 76.64 0 0112.37-13.39A45.57 45.57 0 00810.36 479.05zM949.38 529.12c-.83 3.52-1.67 7-2.6 10.51-.55 2.07-1.13 4.11-1.76 6.13q-3.12 6.39-6.22 12.78l-.63.61-.23.22-.05 0a4.79 4.79 0 01-1.53 1c-1.91 1.9-9.37 2.23-10.58 4.35a1.36 1.36 0 00-.14.33l-.69-4.72-.27-1.82q-1.75-11.91-3.51-23.81c3.49-.62 6.73-1.22 9.68-1.77 8.07-1.52 13.92-2.73 16.64-3.31l.11 0 1.6-.34s0-.09 0-.14z"
        class="color38385c svgShape"></path>
    <path fill="#78a0e8"
        d="M907.81,531.14l2.69,4.53,1.68,2.84c.55.94,1.11,1.87,1.64,2.8L916,545l1.62,2.77c3,5.14,5.6,9.61,7.35,12.65l-.27-1.82q-2.31-15.65-4.61-31.26h0c-.33-2.15-.64-4.3-1-6.44-.65.67-1.29,1.34-2,2A113.19,113.19,0,0,1,907.81,531.14Z"
        class="colore88a78 svgShape"></path>
    <path fill="#5a6082"
        d="M884 473.81q1.14.09 2.28.24c.64.08 1.28.17 1.92.28.43.07.86.14 1.3.23l1.35.29 1.34.32c.59.15 1.19.31 1.78.49.76.22 1.52.46 2.26.72l.63.22c.5.18 1 .35 1.48.55.28.1.57.22.84.34l.61.25c.24.09.46.19.69.3.7.31 1.38.63 2.06 1s1.34.67 2 1c.36.19.71.38 1.06.59s.51.29.75.44h0l.21.13a4.92 4.92 0 01.43.26l.56.34a57.25 57.25 0 016.48 4.74l.33.28a58.7 58.7 0 014.33 4.16c.2.21.4.43.59.65s.61.67.9 1 .58.68.85 1 .67.83 1 1.24c.2.25.38.5.56.75.33.43.63.87.94 1.32l.71 1.05c.16.24.32.49.46.73a3.85 3.85 0 01.23.38l.26.41c.31.51.61 1 .9 1.54s.57 1 .83 1.58.53 1.06.78 1.6.48 1.08.71 1.62c.12.27.22.55.33.82.09-.25.18-.5.25-.76s.11-.34.16-.52c0 0 0 0 0-.05a.64.64 0 00.06-.18h0s0 0 0-.05c.06-.19.11-.38.16-.57.13-.44.23-.88.32-1.33 0-.16.07-.32.1-.49s.07-.33.09-.49.09-.56.13-.83a.89.89 0 000-.15l0-.22c0-.24.06-.47.08-.7 0-.05 0-.11 0-.16 0-.36.07-.71.09-1.07s0-.61 0-.91c0-.51 0-1 0-1.53a1.41 1.41 0 000-.29c0-.19 0-.39 0-.59l0-.54c0-.39-.06-.79-.11-1.18 0 0 0-.09 0-.13 0-.4-.1-.8-.16-1.2s-.1-.6-.16-.9-.11-.6-.18-.9a2.74 2.74 0 00-.09-.39c0-.18-.09-.36-.13-.54s-.12-.49-.2-.74 0-.21-.08-.31-.13-.46-.2-.68c-.18-.58-.38-1.16-.6-1.73-.1-.26-.2-.53-.31-.79-.24-.58-.5-1.16-.78-1.73-.1-.2-.19-.4-.3-.6h0c-.17-.34-.36-.68-.54-1l-.34-.59c-.12-.2-.23-.4-.35-.59q-.36-.58-.75-1.14l-.53-.75c-.27-.37-.56-.73-.84-1.08s-.59-.7-.89-1-.41-.46-.62-.67-.6-.6-.91-.9l-1-.86c-.22-.18-.43-.37-.65-.54l-.91-.7-.63-.45c-.32-.22-.64-.44-1-.64l-1-.6c-.23-.13-.45-.26-.69-.38s-.45-.24-.69-.35l-.64-.31-.9-.4-.68-.28-.3-.11-.32-.12-.64-.23-.82-.26c-.66-.2-1.33-.38-2-.54l-.95-.2-.9-.16-.3-.05-.15 0-.75-.11c-.31 0-.62-.08-.94-.1l-.42 0-.71-.05c-.38 0-.75 0-1.13 0h-.24c-.39 0-.79 0-1.18 0-.65 0-1.28.05-1.92.11l-.63.06c-.43 0-.85.1-1.27.16h0l-1.26.22c-.42.08-.84.17-1.25.27s-.82.2-1.23.32l-1.13.35a1.84 1.84 0 00-.25.09L891 470l-.37.13-1.05.43c-.3.12-.58.26-.87.4l-.76.38a.78.78 0 00-.2.11l-.72.39A26.65 26.65 0 00884 473.81zM949.21 529.17c0 .05 0 .09 0 .14l-1.6.34 1.15-.34z"
        class="color82635a svgShape"></path>
    <path fill="#101329"
        d="M915.71 561.11l-24.36-9.24A21.25 21.25 0 01915.71 561.11zM855.83 554.61l-21 6.51A19.75 19.75 0 01855.83 554.61zM848.33 561.34c2.77-.87 6 1.75 7.32 5.83s.06 8.1-2.71 9-6.06-1.75-7.33-5.84S845.55 562.2 848.33 561.34zM894.36 561.94c2.9-.26 5.56 3 5.94 7.24s-1.64 7.93-4.54 8.2-5.55-3-5.93-7.25S891.47 562.2 894.36 561.94z"
        class="color101029 svgShape"></path>
    <path fill="#6299fb" d="M865.37,558.79q1.75,8.67,3.52,17.33a4.77,4.77,0,1,0-7.33,5.24l12.75,9"
        class="colorfb6562 svgShape"></path>
    <path fill="#ffffff"
        d="M862,599c15.17,4.5,32.93-2.13,41.44-15.47a23.88,23.88,0,0,1-14.86,24.4C878.92,611.55,867.08,607.82,862,599Z"
        class="colorffffff svgShape"></path>
    <path fill="#89b2fb"
        d="M674.9,595.81q3.06-20.7,6.11-41.39c.56-3.77-3.66-7-7.43-6.44s-6.6,4-7.69,7.63-.78,7.55-.46,11.35c-4-1.6-8.1-3.22-12.41-3.44s-8.94,1.21-11.5,4.68a21.44,21.44,0,0,0,14.11,33.92c.2,1.28.4,2.56.59,3.83A52,52,0,0,1,674.9,595.81Z"
        class="colorfbb089 svgShape"></path>
    <path fill="#344382"
        d="M688.66 609.63L654.1 621.06q-1.67-7.51-3.25-15.45l26-10.74S681.42 600.33 688.66 609.63zM949.38 524.09c0 1.71-.06 3.41-.17 5.08l-.46.14H796.45q-.18-2.58-.18-5.22c0-2.06.08-4.09.24-6.11A76.56 76.56 0 01921 464.61a76.6 76.6 0 0124.44 35.21c.57 1.69 1.07 3.41 1.52 5.15A76.76 76.76 0 01949.38 524.09z"
        class="colorf75c3d svgShape"></path>
    <path fill="#7d8ef3"
        d="M948.75,529.31l-1.15.34-.11,0c-2.72.58-8.57,1.79-16.64,3.31-3,.55-6.19,1.15-9.68,1.77-7.6,1.34-16.39,2.8-25.9,4.2-27.78,4.1-61.72,7.71-90.24,6.62-14.21-.53-27.06-2.24-37.15-5.63-.14-.05,0-.1,0-.24-.67-12.27,28.39-10.36,28.39-10.36h12.23l79.8,0h60.5Z"
        class="colore44531 svgShape"></path>
</svg>