<svg xmlns="http://www.w3.org/2000/svg" viewBox="0 0 553 270">
    <g fill="#B6BBC4">
      <path d="M161.848 164.307C161.513 162.966 160.284 161.29 159.082 160.564L151.79 156.233C150.589 155.535 148.494 154.78 147.125 154.557L138.743 153.216C137.374 152.992 135.809 151.763 135.251 150.506L134.245 148.215C133.686 146.958 132.149 145.561 130.836 145.114L126.562 143.689C125.249 143.242 123.377 142.096 122.399 141.09L119.046 137.71C118.068 136.732 116.141 135.922 114.744 135.922H90.4651C89.0682 135.922 87.5595 134.86 87.0566 133.547L85.7994 130.166C85.3244 128.881 83.8437 127.428 82.5306 126.981L77.3619 125.193C76.0488 124.746 74.7357 123.266 74.4284 121.897L74.2607 121.198C73.9534 119.857 72.6962 118.209 71.4669 117.538L64.7058 113.878C63.4765 113.208 62.9736 111.671 63.5603 110.414L65.7116 105.916C66.2983 104.658 67.8908 103.373 69.2598 103.066L81.1616 100.328C82.5026 100.021 84.3186 100.663 85.1847 101.753L86.8052 103.82C87.6713 104.91 89.4593 105.525 90.8004 105.189L92.812 104.686C94.153 104.351 95.4661 102.954 95.7176 101.585L96.0808 99.6295C96.3322 98.2606 97.4777 96.5284 98.6232 95.7461L115.582 84.3192C116.727 83.5369 117.398 81.8047 117.035 80.4637L115.275 73.7025C114.939 72.3615 115.777 71.2719 117.174 71.2998L142.738 71.663C144.135 71.691 145.169 70.5734 145.057 69.1765L144.163 57.3864C144.051 56.0174 142.878 54.5926 141.537 54.2294L139.944 53.8103C138.603 53.4471 137.374 52.0222 137.234 50.6532L136.927 47.9152C136.787 46.5462 135.502 45.4566 134.133 45.5405L121.477 46.1551C120.08 46.211 118.488 47.3006 117.873 48.5578L116.56 51.3237C115.973 52.581 114.381 53.3912 113.012 53.1398L104.155 51.4914C102.786 51.2399 101.78 49.8989 101.92 48.5299L102.283 44.9258C102.423 43.5568 103.596 42.0202 104.909 41.5452L111.838 38.9749C113.151 38.4999 114.688 37.0751 115.303 35.8458L121.281 23.5528C121.896 22.2956 121.253 21.2898 119.857 21.2898H88.7609C87.364 21.2898 85.4082 22.072 84.4025 23.022L80.7425 26.4584C79.7367 27.4083 77.781 28.0788 76.412 27.9391L10.7005 21.5412C9.33149 21.4015 8.35364 22.4073 8.52127 23.8042L10.002 34.7562C10.1976 36.1252 9.19179 37.2427 7.8228 37.2427H2.51447C1.11754 37.2427 0 38.3882 0 39.7572V47.2168C0 48.6137 0.949911 50.3459 2.12333 51.0723L6.06267 53.5588C7.23609 54.3132 9.33149 54.8999 10.7005 54.8999H13.4105C14.8074 54.8999 15.9809 53.7544 16.0647 52.3854L16.2044 49.6474C16.2882 48.2505 17.4896 47.2168 18.8585 47.3006L34.0851 48.2784C35.482 48.3623 37.298 49.3401 38.1362 50.4297L42.3828 55.9336C43.221 57.0232 43.7518 59.0627 43.5563 60.4317L42.5505 67.5281C42.3549 68.8971 41.0697 70.2382 39.7287 70.4896L35.6217 71.2719C34.2527 71.5233 33.1352 72.8644 33.1072 74.2613L32.744 100.691C32.7161 102.088 33.5263 103.988 34.5321 104.966L42.9695 113.096C43.9753 114.046 44.59 115.974 44.3665 117.343L43.8915 120.136C43.668 121.505 44.562 122.93 45.9031 123.294L63.0294 127.987C64.3705 128.35 65.7954 129.747 66.1865 131.06L66.9129 133.491C67.304 134.832 68.7569 135.894 70.1538 135.894H72.8638C74.2607 135.894 75.5739 137.011 75.8253 138.38L76.2444 140.811C76.4958 142.18 77.809 143.298 79.2059 143.298H83.6481C85.045 143.298 86.3582 144.415 86.6096 145.784L87.4757 150.729C87.7272 152.098 86.7772 153.216 85.3803 153.216H84.8215C83.4246 153.216 82.1674 154.333 82.0277 155.73L80.8822 165.816C80.7146 167.185 81.4689 169.029 82.5306 169.923L90.7166 176.628C91.7783 177.494 92.6723 179.366 92.6723 180.735V190.793C92.6723 192.19 93.5663 194.006 94.6559 194.844L100.16 199.091C101.249 199.929 102.227 201.773 102.339 203.142L104.993 241.222C105.077 242.591 106.083 244.407 107.172 245.245L110.05 247.397C111.168 248.235 112.062 250.051 112.062 251.42V261.478C112.062 262.875 113.095 264.439 114.381 264.97L125.249 269.496C126.534 270.027 127.847 269.356 128.182 268.015L129.97 260.835C130.306 259.494 129.691 257.678 128.601 256.84L126.534 255.22C125.444 254.353 124.634 252.537 124.718 251.141L126.115 229.879C126.199 228.482 127.065 226.555 128.043 225.577L149.527 203.729C150.505 202.751 151.287 200.795 151.287 199.398V188.474C151.287 187.077 152.07 185.122 153.02 184.116L162.072 174.421C163.022 173.415 163.525 171.488 163.217 170.119L161.848 164.307ZM131.451 25.0615C132.122 26.2628 132.373 28.3582 132.01 29.6993L130.138 36.5163C129.775 37.8573 130.585 39.1146 131.954 39.3381L138.492 40.3718C139.861 40.5953 141.816 40.0086 142.822 39.0587L143.437 38.4999C144.442 37.55 145.281 35.6502 145.281 34.2533V30.0904C145.281 28.6935 144.247 27.1289 142.962 26.5702L138.072 24.4468C136.815 23.8881 136.201 22.4073 136.759 21.1221L137.206 20.0605C137.765 18.7753 139.274 17.3784 140.587 16.9034L155.171 11.8186C156.484 11.3716 158.3 10.1423 159.222 9.08061L160.2 7.96306C161.122 6.92933 161.541 4.97363 161.122 3.66052L160.731 2.3474C160.34 1.00635 158.998 0.447583 157.769 1.11811L149.946 5.22508C148.717 5.86767 146.594 6.37056 145.197 6.34262L131.507 6.11911C130.11 6.09118 128.657 7.18078 128.294 8.49389L126.925 13.1596C126.534 14.5007 126.757 16.5681 127.428 17.7974L131.451 25.0615ZM201.8 8.82916L179.338 3.01793C177.997 2.68267 176.013 3.10175 174.923 3.96784L163.832 12.7964C162.742 13.6625 160.787 14.7242 159.473 15.1433L151.986 17.5739C150.673 17.993 149.583 19.4458 149.583 20.8148C149.583 22.1838 150.729 23.2734 152.098 23.2734H155.953C157.35 23.2734 158.188 24.363 157.853 25.7041L154.64 38.3323C154.305 39.6734 154.417 41.8526 154.892 43.1377L157.629 50.6812C158.104 51.9943 159.613 53.0559 161.01 53.0559H163.636C165.033 53.0559 166.737 52.0781 167.464 50.9047L176.488 36.1531C177.214 34.9797 178.891 33.6666 180.204 33.2475L201.8 26.4584C203.113 26.0393 204.203 24.5586 204.203 23.1896V11.9583C204.231 10.5893 203.141 9.16442 201.8 8.82916ZM223.313 38.6396L225.492 35.2591C226.247 34.0856 225.8 32.7166 224.514 32.2138L220.296 30.5374C219.011 30.0345 217.39 30.5933 216.72 31.7947L215.183 34.5047C214.512 35.7061 214.959 37.2148 216.189 37.8573L219.709 39.6454C220.938 40.2601 222.559 39.813 223.313 38.6396ZM242.73 61.689C243.513 62.8344 244.798 62.8065 245.58 61.661L246.334 60.5155C247.089 59.3701 246.921 57.6099 245.943 56.6321L244.155 54.844C243.177 53.8662 241.781 54.0338 241.054 55.2072L241.026 55.2631C240.3 56.4365 240.356 58.3363 241.166 59.4818L242.73 61.689ZM251.699 68.031H251.922C253.319 68.031 255.051 67.0811 255.834 65.9077L256.756 64.5108C257.51 63.3373 258.097 61.2699 258.041 59.873L257.678 51.0444C257.622 49.6474 256.56 49.0048 255.303 49.5915L254.018 50.2062C252.76 50.7929 251.727 52.4133 251.727 53.8103V56.7718C251.727 58.1687 251.168 60.0126 250.469 60.9067C249.771 61.8007 249.212 63.6447 249.212 65.0416V65.5165C249.184 66.8855 250.302 68.031 251.699 68.031ZM552.653 41.3776L548.546 34.9517C547.792 33.7783 546.06 32.9122 544.663 32.996L521.837 34.4488C520.44 34.5327 518.54 33.7783 517.59 32.7725L512.17 27.0731C511.22 26.0673 509.32 25.0615 507.951 24.81L476.185 19.3341C474.816 19.1106 472.581 19.1385 471.24 19.4179L446.235 24.7262C444.866 25.0056 442.854 24.5586 441.765 23.7204L429.5 14.4728C428.382 13.6346 426.343 12.9641 424.974 12.9641H377.562C376.165 12.9641 374.098 13.5787 372.924 14.3331L365.297 19.2782C364.124 20.0325 363.202 21.7927 363.257 23.1616L363.425 30.286C363.453 31.6829 362.391 32.5211 361.05 32.1858L352.892 30.1463C351.551 29.811 349.735 30.4257 348.869 31.5153L343.114 38.7514C342.248 39.841 340.404 40.735 339.035 40.735H323.92C322.523 40.735 320.791 39.7851 320.036 38.6117L314.449 29.811C313.694 28.6376 312.018 27.3245 310.705 26.8775L304.503 24.7541C303.19 24.3071 301.038 24.3071 299.753 24.7821L284.638 30.2022C283.325 30.6771 281.509 31.9064 280.615 32.9402L271.479 43.3612C270.557 44.395 270.529 46.1272 271.395 47.2168L274.497 51.0723C275.363 52.1619 277.207 53.028 278.604 53.028H284.471C285.868 53.028 287.712 52.1619 288.606 51.1002L295.73 42.6628C296.624 41.6011 298.468 40.9585 299.809 41.2659L300.815 41.4894C302.184 41.7687 303.189 43.1377 303.05 44.5347L302.91 46.0154C302.77 47.3844 303.553 49.2563 304.586 50.1503L304.614 50.1783C305.676 51.0723 305.536 52.3575 304.307 53.028L301.625 54.4808C300.396 55.1513 299.278 56.7997 299.138 58.1966L298.803 61.2699C298.663 62.6389 297.406 63.8402 296.009 63.8961L278.576 64.7343C277.179 64.7901 275.754 63.7564 275.391 62.4433L274.916 60.7111C274.552 59.3701 273.1 58.2804 271.731 58.2804H269.076C267.68 58.2804 266.087 59.3142 265.5 60.5714L263.154 65.7401C262.567 66.9973 261.058 68.4501 259.745 68.925L258.823 69.2883C257.538 69.7911 255.75 71.0763 254.884 72.138L252.732 74.7642C251.866 75.8259 251.615 77.7536 252.202 79.0109L253.934 82.7267C254.521 83.9839 253.878 85.1574 252.509 85.3529L246.251 86.1911C244.882 86.3587 244.016 87.616 244.323 88.9849L245.832 95.3549C246.139 96.696 247.508 98.065 248.877 98.3723L255.694 99.9089C257.035 100.216 258.152 99.3222 258.152 97.9532V95.8858C258.152 94.4889 259.13 92.7846 260.304 92.0582L265.305 89.0408C266.478 88.3144 268.574 87.8953 269.943 88.0909L275.027 88.8453C276.396 89.0408 278.045 90.2142 278.687 91.4436L280.811 95.5505C281.453 96.7798 281.286 98.7076 280.448 99.7972L279.917 100.496C279.079 101.613 279.106 103.401 279.973 104.491L280.392 104.994C281.258 106.083 282.822 106.223 283.884 105.329L287.739 102.06C288.801 101.166 289.164 99.406 288.55 98.1768L285.476 92.0023C284.862 90.773 285.281 89.0967 286.398 88.2865L287.656 87.3925C288.773 86.5822 290.338 86.8616 291.092 88.0071L296.596 96.249C297.378 97.3945 299.055 97.9532 300.368 97.4783L306.291 95.327C307.604 94.8521 309.42 95.327 310.314 96.3607L317.941 105.022C318.863 106.055 319.338 108.011 319.031 109.352L318.416 111.867C318.081 113.208 316.712 114.549 315.371 114.828L296.009 118.851C294.64 119.131 292.489 118.963 291.176 118.488L284.052 115.806C282.766 115.331 281.006 114.018 280.14 112.928L275.223 106.558C274.385 105.469 272.541 104.631 271.172 104.742L258.432 105.58C257.035 105.664 255.051 106.475 253.962 107.341L228.817 127.875C227.755 128.742 226.722 130.586 226.554 131.982L225.716 138.548C225.548 139.917 224.57 141.817 223.537 142.739L221.916 144.22C220.882 145.169 220.156 147.041 220.24 148.438L221.022 158.692C221.134 160.061 222.084 161.933 223.173 162.799L236.165 173.527C237.227 174.421 239.238 175.12 240.635 175.12H263.74C265.137 175.12 267.121 175.846 268.182 176.768L272.345 180.316C273.407 181.21 274.329 183.082 274.385 184.479L274.72 191.603C274.776 193 275.81 194.732 276.983 195.459L283.66 199.622C284.834 200.348 285.728 202.08 285.616 203.477L283.884 228.091C283.8 229.46 284.582 231.304 285.672 232.17L290.617 236.137C291.707 237.004 292.517 238.848 292.461 240.217L291.511 259.773C291.455 261.17 292.517 262.372 293.914 262.484L307.548 263.573C308.917 263.685 310.873 262.959 311.85 261.981L326.071 247.76C327.049 246.782 327.859 244.854 327.859 243.457V228.929C327.859 227.532 328.725 225.688 329.815 224.822L338.644 217.642C339.705 216.776 340.711 214.932 340.823 213.535L342.443 195.738C342.583 194.369 343.421 192.386 344.343 191.324L360.855 172.577C361.777 171.543 362.531 169.56 362.531 168.163V160.759C362.531 159.362 361.386 158.245 360.017 158.273L339.286 158.524C337.889 158.552 336.716 157.407 336.66 156.038L336.297 148.466C336.241 147.069 335.319 145.225 334.257 144.331L329.508 140.336C328.446 139.442 327.496 137.57 327.384 136.201L326.909 130.558C326.798 129.189 327.803 127.792 329.144 127.456L334.313 126.227C335.654 125.92 337.582 126.451 338.588 127.4L345.628 134.19C346.634 135.139 347.388 137.067 347.305 138.464L346.718 148.606C346.634 150.003 347.64 151.484 348.953 151.931L352.166 152.992C353.479 153.439 355.295 152.908 356.189 151.847L366.889 139.107C367.784 138.045 367.616 136.453 366.554 135.587L356.86 127.792C355.77 126.926 355.63 125.333 356.524 124.271L359.514 120.723C360.408 119.662 362.224 119.047 363.593 119.382L366.107 119.997C367.448 120.332 369.097 121.589 369.767 122.791L372.393 127.568C373.064 128.797 374.74 129.803 376.137 129.831L384.128 130.027C385.525 130.055 386.642 131.228 386.642 132.597V138.827C386.642 140.224 387.76 141.454 389.157 141.593L396.281 142.292C397.65 142.431 398.572 143.661 398.32 145.002L396.588 154.277C396.337 155.646 396.84 157.63 397.734 158.692L407.875 171.096C408.741 172.158 410.613 173.052 411.982 173.052H413.77C415.167 173.052 416.732 172.018 417.291 170.733L430.422 139.945C430.953 138.66 432.545 137.626 433.942 137.626H435.423C436.82 137.626 438.72 138.464 439.669 139.47L447.464 147.768C448.414 148.774 449.197 150.729 449.197 152.126V161.569C449.197 162.966 449.895 164.978 450.733 166.095L455.371 172.13C456.209 173.22 457.718 173.332 458.696 172.354L460.121 170.957C461.098 169.979 461.07 168.442 460.009 167.548L457.913 165.732C456.852 164.838 456.097 162.966 456.237 161.569L456.349 160.396C456.489 159.027 457.718 157.882 459.115 157.882H459.422C460.819 157.882 462.356 158.943 462.831 160.228L463.389 161.709C463.892 162.994 465.261 163.469 466.435 162.743L472.218 159.195C473.391 158.468 474.369 156.736 474.369 155.367V147.628C474.369 146.231 473.391 144.527 472.19 143.828L469.117 142.012C467.915 141.314 467.133 139.61 467.357 138.241L468.335 132.094C468.558 130.725 469.871 129.747 471.24 129.887L478.085 130.669C479.454 130.837 481.074 129.943 481.633 128.658L486.327 118.488C486.914 117.231 486.662 115.331 485.796 114.241L480.376 107.508C479.51 106.419 478.979 104.435 479.231 103.066L480.46 95.9137C480.683 94.5447 482.024 93.4272 483.393 93.4272H488.143C489.54 93.4272 490.602 92.2817 490.546 90.9127L489.009 60.8229C488.925 59.4259 489.791 57.6099 490.881 56.7718L496.077 52.7766C497.167 51.9384 499.207 51.3237 500.576 51.4355L514.21 52.5251C515.579 52.6369 516.808 53.8662 516.892 55.2351L517.758 68.2545C517.842 69.6515 518.959 71.2439 520.216 71.8027L522.452 72.8085C523.709 73.3952 525.189 72.8085 525.72 71.5233L533.264 53.5588C533.795 52.2737 535.219 50.6532 536.421 49.9548L545.11 44.8141C546.311 44.1156 548.406 43.5289 549.803 43.5289H551.591C552.877 43.5009 553.407 42.551 552.653 41.3776ZM500.268 104.184C499.765 105.469 499.71 107.592 500.156 108.905L501.637 113.236C502.084 114.549 503.593 115.722 504.962 115.834L506.61 115.974C507.979 116.085 509.739 115.247 510.522 114.074L513.511 109.604C514.293 108.458 514.908 106.363 514.908 104.994V89.7393C514.908 88.3424 514.154 86.3587 513.26 85.325L510.801 82.5311C509.879 81.4974 508.063 80.9945 506.75 81.4695L504.85 82.14C503.537 82.587 502.922 84.0119 503.509 85.2691L504.766 88.063C505.325 89.3202 505.381 91.4156 504.878 92.7008L500.268 104.184ZM358.508 214.485L357.865 214.066C356.692 213.312 355.044 213.619 354.177 214.709L343.952 227.812C343.086 228.901 342.834 230.829 343.393 232.114L344.986 235.886C345.516 237.171 347.081 238.4 348.45 238.652L349.26 238.792C350.629 239.043 352.669 238.596 353.814 237.814L358.592 234.461C359.737 233.651 360.659 231.891 360.659 230.494V218.341C360.631 216.972 359.681 215.239 358.508 214.485ZM459.618 193.615H466.127C467.524 193.615 468.642 192.469 468.642 191.1V188.251C468.642 186.854 467.496 185.708 466.127 185.708L461.825 185.652C460.428 185.625 459.059 184.507 458.752 183.166L458.081 180.149C457.774 178.807 456.516 177.215 455.259 176.628L448.275 173.332C447.017 172.745 445.397 173.22 444.643 174.393L444.223 175.064C443.497 176.237 443.19 178.277 443.581 179.618L445.313 185.68C445.704 187.021 447.017 188.614 448.247 189.229L454.84 192.525C456.097 193.112 458.249 193.615 459.618 193.615ZM494.681 185.82L492.669 181.685C492.054 180.428 490.574 179.953 489.344 180.596L482.024 184.451C480.795 185.094 480.432 186.574 481.214 187.72L482.611 189.787C483.393 190.933 485.126 192.19 486.439 192.581L496.944 195.627C498.285 196.018 500.268 195.738 501.358 194.984C502.447 194.258 502.447 192.972 501.33 192.162L497.838 189.62C496.692 188.754 495.267 187.077 494.681 185.82ZM501.106 244.156L504.655 238.428C505.381 237.255 506.079 235.16 506.163 233.763L507.113 221.023C507.225 219.654 506.75 217.502 506.079 216.301L498.285 202.052C497.614 200.823 495.966 200.097 494.625 200.432L493.982 200.6C492.641 200.935 491.523 202.332 491.523 203.701V204.008C491.523 205.405 490.685 206.523 489.624 206.523C488.562 206.523 486.969 205.684 486.048 204.651L485.628 204.176C484.706 203.142 482.835 202.499 481.466 202.723L473.308 204.092C471.939 204.315 470.234 205.489 469.536 206.69L467.217 210.574C466.518 211.775 464.87 213.172 463.613 213.703L454.477 217.53C453.192 218.061 452.158 219.626 452.158 221.023V241.334C452.158 242.731 453.164 244.407 454.365 245.078H454.393C455.622 245.748 457.662 245.916 458.975 245.469L463.11 244.016C464.423 243.569 465.82 242.088 466.239 240.775L466.295 240.636C466.714 239.322 468.167 238.009 469.536 237.73L474.369 236.78C475.738 236.501 477.526 237.199 478.364 238.317L482.89 244.296C483.729 245.413 485.545 246.307 486.942 246.307H497.251C498.648 246.279 500.38 245.329 501.106 244.156ZM514.908 249.939L514.21 249.38C513.12 248.514 511.5 248.682 510.606 249.744L508.985 251.671C508.091 252.733 506.303 253.99 504.99 254.437L501.078 255.834C499.765 256.309 499.011 257.762 499.402 259.103L499.765 260.36C500.157 261.701 501.581 262.567 502.95 262.288L506.666 261.562C508.035 261.282 509.544 260.332 510.019 259.438C510.522 258.544 511.947 257.538 513.232 257.231C514.517 256.924 515.858 255.583 516.193 254.242L516.277 253.878C516.612 252.593 515.998 250.805 514.908 249.939ZM525.217 236.277C524.547 236.277 523.29 236.026 522.452 235.718C521.585 235.411 520.3 236.137 519.602 237.311L518.205 239.658C517.478 240.859 517.674 242.675 518.596 243.681L519.211 244.379C520.133 245.413 521.753 245.497 522.787 244.603L527.005 240.915C528.039 239.993 528.347 238.568 527.676 237.758C527.005 236.976 525.888 236.277 525.217 236.277Z" />
    </g>
    <path d="M22.5456 0.0454102C28.4909 0.0524241 34.1908 2.41731 38.3948 6.62131C42.5988 10.8253 44.9637 16.5251 44.9707 22.4705C44.9778 27.329 43.3908 32.0558 40.453 35.9255C40.453 35.9255 39.8414 36.7308 39.7415 36.847L22.5456 57.1274L5.34142 36.8368C5.25171 36.7288 4.63808 35.9255 4.63808 35.9255L4.63604 35.9194C1.69977 32.0513 0.113468 27.3268 0.120441 22.4705C0.127453 16.5251 2.49234 10.8253 6.69635 6.62131C10.9004 2.41731 16.6002 0.0524241 22.5456 0.0454102ZM22.5456 30.6251C24.1584 30.6251 25.735 30.1468 27.076 29.2508C28.417 28.3547 29.4622 27.0812 30.0794 25.5911C30.6966 24.1011 30.8581 22.4615 30.5435 20.8796C30.2288 19.2978 29.4522 17.8448 28.3117 16.7043C27.1713 15.5639 25.7183 14.7873 24.1364 14.4726C22.5546 14.158 20.915 14.3194 19.4249 14.9366C17.9349 15.5539 16.6613 16.599 15.7653 17.9401C14.8692 19.2811 14.391 20.8577 14.391 22.4705C14.3937 24.6324 15.2537 26.705 16.7824 28.2337C18.3111 29.7624 20.3837 30.6224 22.5456 30.6251Z" fill="#3D4B9F" />
    <svg x="100" y="120">
    <path d="M22.9772 0.462646C28.9226 0.46966 34.6224 2.83455 38.8264 7.03855C43.0304 11.2425 45.3953 16.9424 45.4023 22.8877C45.4094 27.7463 43.8224 32.473 40.8847 36.3428C40.8847 36.3428 40.2731 37.148 40.1732 37.2642L22.9772 57.5447L5.77306 37.2541C5.68336 37.146 5.06973 36.3428 5.06973 36.3428L5.06769 36.3367C2.13141 32.4686 0.545113 27.744 0.552082 22.8877C0.559097 16.9424 2.92399 11.2425 7.12799 7.03855C11.332 2.83455 17.0318 0.46966 22.9772 0.462646ZM22.9772 31.0423C24.59 31.0423 26.1666 30.564 27.5076 29.668C28.8487 28.772 29.8939 27.4984 30.5111 26.0084C31.1283 24.5183 31.2897 22.8787 30.9751 21.2969C30.6605 19.715 29.8838 18.262 28.7434 17.1216C27.6029 15.9811 26.1499 15.2045 24.5681 14.8898C22.9862 14.5752 21.3466 14.7367 19.8566 15.3539C18.3665 15.9711 17.0929 17.0163 16.1969 18.3573C15.3009 19.6983 14.8226 21.2749 14.8226 22.8877C14.8253 25.0496 15.6853 27.1222 17.214 28.6509C18.7427 30.1796 20.8153 31.0396 22.9772 31.0423Z" fill="#293573" />
    </svg>
    <svg x="200" y="90">
    <path d="M22.9772 0.462646C28.9226 0.46966 34.6224 2.83455 38.8264 7.03855C43.0304 11.2425 45.3953 16.9424 45.4023 22.8877C45.4094 27.7463 43.8224 32.473 40.8847 36.3428C40.8847 36.3428 40.2731 37.148 40.1732 37.2642L22.9772 57.5447L5.77306 37.2541C5.68336 37.146 5.06973 36.3428 5.06973 36.3428L5.06769 36.3367C2.13141 32.4686 0.545113 27.744 0.552082 22.8877C0.559097 16.9424 2.92399 11.2425 7.12799 7.03855C11.332 2.83455 17.0318 0.46966 22.9772 0.462646ZM22.9772 31.0423C24.59 31.0423 26.1666 30.564 27.5076 29.668C28.8487 28.772 29.8939 27.4984 30.5111 26.0084C31.1283 24.5183 31.2897 22.8787 30.9751 21.2969C30.6605 19.715 29.8838 18.262 28.7434 17.1216C27.6029 15.9811 26.1499 15.2045 24.5681 14.8898C22.9862 14.5752 21.3466 14.7367 19.8566 15.3539C18.3665 15.9711 17.0929 17.0163 16.1969 18.3573C15.3009 19.6983 14.8226 21.2749 14.8226 22.8877C14.8253 25.0496 15.6853 27.1222 17.214 28.6509C18.7427 30.1796 20.8153 31.0396 22.9772 31.0423Z" fill="#5050B3" />
    </svg>
    <svg x="300" y="130">
    <path d="M22.9772 0.462646C28.9226 0.46966 34.6224 2.83455 38.8264 7.03855C43.0304 11.2425 45.3953 16.9424 45.4023 22.8877C45.4094 27.7463 43.8224 32.473 40.8847 36.3428C40.8847 36.3428 40.2731 37.148 40.1732 37.2642L22.9772 57.5447L5.77306 37.2541C5.68336 37.146 5.06973 36.3428 5.06973 36.3428L5.06769 36.3367C2.13141 32.4686 0.545113 27.744 0.552082 22.8877C0.559097 16.9424 2.92399 11.2425 7.12799 7.03855C11.332 2.83455 17.0318 0.46966 22.9772 0.462646ZM22.9772 31.0423C24.59 31.0423 26.1666 30.564 27.5076 29.668C28.8487 28.772 29.8939 27.4984 30.5111 26.0084C31.1283 24.5183 31.2897 22.8787 30.9751 21.2969C30.6605 19.715 29.8838 18.262 28.7434 17.1216C27.6029 15.9811 26.1499 15.2045 24.5681 14.8898C22.9862 14.5752 21.3466 14.7367 19.8566 15.3539C18.3665 15.9711 17.0929 17.0163 16.1969 18.3573C15.3009 19.6983 14.8226 21.2749 14.8226 22.8877C14.8253 25.0496 15.6853 27.1222 17.214 28.6509C18.7427 30.1796 20.8153 31.0396 22.9772 31.0423Z" fill="#293573" />
    </svg>
    <svg x="450" y="50">
    <path d="M22.9772 0.462646C28.9226 0.46966 34.6224 2.83455 38.8264 7.03855C43.0304 11.2425 45.3953 16.9424 45.4023 22.8877C45.4094 27.7463 43.8224 32.473 40.8847 36.3428C40.8847 36.3428 40.2731 37.148 40.1732 37.2642L22.9772 57.5447L5.77306 37.2541C5.68336 37.146 5.06973 36.3428 5.06973 36.3428L5.06769 36.3367C2.13141 32.4686 0.545113 27.744 0.552082 22.8877C0.559097 16.9424 2.92399 11.2425 7.12799 7.03855C11.332 2.83455 17.0318 0.46966 22.9772 0.462646ZM22.9772 31.0423C24.59 31.0423 26.1666 30.564 27.5076 29.668C28.8487 28.772 29.8939 27.4984 30.5111 26.0084C31.1283 24.5183 31.2897 22.8787 30.9751 21.2969C30.6605 19.715 29.8838 18.262 28.7434 17.1216C27.6029 15.9811 26.1499 15.2045 24.5681 14.8898C22.9862 14.5752 21.3466 14.7367 19.8566 15.3539C18.3665 15.9711 17.0929 17.0163 16.1969 18.3573C15.3009 19.6983 14.8226 21.2749 14.8226 22.8877C14.8253 25.0496 15.6853 27.1222 17.214 28.6509C18.7427 30.1796 20.8153 31.0396 22.9772 31.0423Z" fill="#31304D" />
    </svg>
    <svg x="350" y="5">
    <path d="M22.9772 0.462646C28.9226 0.46966 34.6224 2.83455 38.8264 7.03855C43.0304 11.2425 45.3953 16.9424 45.4023 22.8877C45.4094 27.7463 43.8224 32.473 40.8847 36.3428C40.8847 36.3428 40.2731 37.148 40.1732 37.2642L22.9772 57.5447L5.77306 37.2541C5.68336 37.146 5.06973 36.3428 5.06973 36.3428L5.06769 36.3367C2.13141 32.4686 0.545113 27.744 0.552082 22.8877C0.559097 16.9424 2.92399 11.2425 7.12799 7.03855C11.332 2.83455 17.0318 0.46966 22.9772 0.462646ZM22.9772 31.0423C24.59 31.0423 26.1666 30.564 27.5076 29.668C28.8487 28.772 29.8939 27.4984 30.5111 26.0084C31.1283 24.5183 31.2897 22.8787 30.9751 21.2969C30.6605 19.715 29.8838 18.262 28.7434 17.1216C27.6029 15.9811 26.1499 15.2045 24.5681 14.8898C22.9862 14.5752 21.3466 14.7367 19.8566 15.3539C18.3665 15.9711 17.0929 17.0163 16.1969 18.3573C15.3009 19.6983 14.8226 21.2749 14.8226 22.8877C14.8253 25.0496 15.6853 27.1222 17.214 28.6509C18.7427 30.1796 20.8153 31.0396 22.9772 31.0423Z" fill="#293573" />
    </svg>
  </svg>