<svg xmlns="http://www.w3.org/2000/svg" enable-background="new 0 0 1500 1500"
    viewBox="0 0 1500 1500" id="Trackyourorder">
    <path fill="#acbaff"
        d="M730.6,1418.3c0,0-36.2-79.8,22.6-135.4c58.8-55.5,69.3-50.7,91.1-95.9c21.9-45.2,41.4-95.3,83.6-106.5
    c42.2-11.3,79.5,6,111.9,3.2c40.4-3.5,51.6-30,106.6-40.4c53.1-9.9,90.4,30.7,113,74.3c22.6,43.6,9,44.9,73.7,59.4
    c64.8,14.5,82.8,61.9,87.8,105.9c4.9,42.4,76.3,23.5,41.7,135.4L730.6,1418.3L730.6,1418.3z"
        class="color006b27 svgShape"></path>
    <line x1="1190.5" x2="1108.2" y1="1074" y2="1418.3" fill="none" stroke="#7c8cec"
        stroke-miterlimit="10" stroke-width="1.875" class="colorStrokeffffff svgStroke"></line>
    <line x1="1347.7" x2="1145.2" y1="1222.1" y2="1418.3" fill="none" stroke="#7c8cec"
        stroke-miterlimit="10" stroke-width="1.875" class="colorStrokeffffff svgStroke"></line>
    <line x1="1442.4" x2="1180.9" y1="1348.3" y2="1418.3" fill="none" stroke="#7c8cec"
        stroke-miterlimit="10" stroke-width="1.875" class="colorStrokeffffff svgStroke"></line>
    <line x1="929.5" x2="1081" y1="1114.5" y2="1418.3" fill="none" stroke="#7c8cec"
        stroke-miterlimit="10" stroke-width="1.875" class="colorStrokeffffff svgStroke"></line>
    <line x1="791.2" x2="1044.8" y1="1300.7" y2="1418.3" fill="none" stroke="#7c8cec"
        stroke-miterlimit="10" stroke-width="1.875" class="colorStrokeffffff svgStroke"></line>
    <circle cx="1272.8" cy="276.6" r="215.3" fill="#293573" class="colorffc000 svgShape"></circle>
    <circle cx="258.7" cy="1168" r="39.2" fill="none" stroke="#344382" stroke-miterlimit="10"
        stroke-width="3.75" transform="rotate(-80.781 258.679 1168.016)"
        class="colorStrokeff478b svgStroke"></circle>
    <circle cx="587" cy="428.9" r="13.5" fill="#8794d8" class="colorff4b85 svgShape"></circle>
    <path fill="#263ba2"
        d="M1176.4,1423.9h-65.1l137.4-1189.2h65.1c18.6,0,31.9,15,29.7,33.6l-129.7,1122
        C1211.7,1408.9,1195,1423.9,1176.4,1423.9z"
        class="color006ad3 svgShape"></path>
    <path fill="#343a5f"
        d="M615.7,1423.9h488.5c19.4,0,36.9-15.7,39.2-35.1l129.3-1119c2.3-19.4-11.7-35.1-31.1-35.1H753.1
        c-19.4,0-36.9,15.7-39.2,35.1l-129.3,1119C582.4,1408.2,596.3,1423.9,615.7,1423.9z"
        class="color2e3744 svgShape"></path>
    <polygon fill="#ffffff" points="619.8 1359.9 1114.8 1359.9 1237.4 298.7 742.4 298.7"
        class="colorffffff svgShape"></polygon>
    <path fill="none" stroke="#7c8cec" stroke-miterlimit="10" stroke-width="1.59"
        d="M1253.8,754.7L1253.8,754.7c8.7,0,16.6-7.1,17.6-15.8l29.4-254.7c1-8.7-5.3-15.8-14-15.8l0,0
            c-8.7,0-16.6,7.1-17.6,15.8l-29.4,254.7C1238.8,747.6,1245,754.7,1253.8,754.7z"
        class="colorStrokeffffff svgStroke"></path>
    <path fill="none" stroke="#7c8cec" stroke-miterlimit="10" stroke-width="1.59"
        d="M1278.8,484c-0.4,3.5,2.1,6.2,5.5,6.2s6.6-2.8,6.9-6.2c0.4-3.5-2.1-6.2-5.5-6.2
            C1282.3,477.8,1279.2,480.5,1278.8,484z"
        class="colorStrokeffffff svgStroke"></path>
    <g fill="#a1abe6" class="color000000 svgShape">
        <path fill="#263ba2"
            d="M965.2 272.1h88.8c3.5 0 6.6-2.8 6.9-6.2l0 0c.4-3.5-2.1-6.2-5.5-6.2h-88.8c-3.5 0-6.6 2.8-6.9 6.2l0 0C959.3 269.4 961.7 272.1 965.2 272.1zM926.5 265.9c-.7 5.9 3.5 10.7 9.4 10.7s11.2-4.8 11.9-10.7c.7-5.9-3.5-10.7-9.4-10.7S927.1 260 926.5 265.9z"
            class="color006ad3 svgShape"></path>
    </g>
    <g fill="#a1abe6" class="color000000 svgShape">
        <polygon fill="#8794d8"
            points="560.6 819.8 415.2 817 146.5 811.9 148.2 798.3 208.1 336.6 308.5 338.8 358.5 339.9 476.7 342.4 480.2 342.5 515.9 554.3 528.2 627.5 528.2 627.6 531.9 649.2 535.3 669.6 543.7 719.1 548 745.2 558.3 806"
            class="colorff4b85 svgShape"></polygon>
        <polygon fill="#f0ece5" points="358.5 339.9 348 415.4 297.8 415.4 308.5 338.8"
            class="colorffd7e5 svgShape"></polygon>
        <polygon fill="#fafcff" points="476.8 341.7 415.2 817 560.6 819.8 480.2 342.5"
            class="colorff1f70 svgShape"></polygon>
        <rect width="250.9" height="359.4" x="503.9" y="502.2" fill="#293573"
            transform="rotate(-88.9 629.303 681.902)" class="colorffc000 svgShape"></rect>
        <rect width="73" height="378" x="594.5" y="404" fill="#293573"
            transform="rotate(-88.9 630.994 593.018)" class="colorffc000 svgShape"></rect>
        <rect width="250.9" height="52.5" x="503.9" y="655.7" fill="#ffffff"
            transform="rotate(-88.9 629.284 681.901)" class="colorffffff svgShape"></rect>
        <polygon points="809.1 678.9 450.4 640.5 450.6 626.1 810 633" enable-background="new"
            opacity=".26" fill="#a1abe6" class="color000000 svgShape"></polygon>
        <path fill="#b6bbc4"
            d="M976.3,850.5c5.6-0.5,8.7-6.7,5.7-11.5c-32.2-50.4-80.6-194-234.4-185.2c-130.6,7.5-281.1,21.7-348.1,28.3
        c-11.6,1.1-15.1,16.3-5.2,22.4l17.4,10.9c13.5,8.4,29.3,12.2,45.1,10.9l121.5-10.1c28.1-2.3,55.1,11.5,69.5,35.7L762,943.6
        c1.5,2.5,4.2,3.9,7.1,3.6L976.3,850.5z"
            class="colorff7f72 svgShape"></path>
        <path fill="#b6bbc4"
            d="M417.9 797.9c141.1-63.7 238.5-88 292.7-97.2 28.2-4.8 55.3 13.1 61.9 41l16.7 71.3c7.5 32.2-15.3 63.6-48.2 66.3l-336.6 28c-4.7.4-9.5.2-14.1-.7l-349.4-63c-10.2-1.8-14.4-14.1-7.5-21.8 8.9-9.9 43.5-27.2 73-25.2 49.4 3.4 238.7 5.7 288.5 6.3C402.9 802.8 410.7 801.2 417.9 797.9zM942 768.3l116.9 200.1c0 0-76.1 133.5-246.4 116.7l-67.7-170.6L942 768.3z"
            class="colorff7f72 svgShape"></path>
        <path fill="none" stroke="#7d8ef3" stroke-miterlimit="10" stroke-width="1.875"
            d="M1039.6 1035.4c0 0-15.8 29-85.8 58.1M774.3 1064.4c0 0 22.4 50.1 44.9 47.5M922.2 1125.1c0 0 38-5.4 72.3-26.6"
            class="colorStroke006ad3 svgStroke"></path>
    </g>
    <g fill="#a1abe6" class="color000000 svgShape">
        <path fill="#263ba2"
            d="M788.8 478.8l3.2-15.8 1 5.6-11.3-28.3h8.9l8.6 21.6-5.4 0 17.4-21.7h9.2l-22.5 28.3 3-5.7-3.2 15.8L788.8 478.8 788.8 478.8zM834.8 479.4c-3.9 0-7.2-.7-10.1-2.1-2.8-1.4-5-3.4-6.5-5.9-1.5-2.5-2.3-5.4-2.3-8.7 0-3.3.6-6.3 1.7-9.2 1.1-2.8 2.7-5.3 4.9-7.3 2.1-2.1 4.6-3.7 7.5-4.9 2.9-1.2 6.2-1.8 9.7-1.8 3.9 0 7.2.7 10.1 2.1 2.8 1.4 5 3.4 6.5 5.9 1.5 2.5 2.3 5.4 2.3 8.7 0 3.3-.6 6.3-1.7 9.2-1.1 2.8-2.8 5.3-4.9 7.3-2.1 2.1-4.6 3.7-7.5 4.9C841.6 478.8 838.3 479.4 834.8 479.4zM835.5 471.8c2.2 0 4.1-.4 5.9-1.2 1.7-.8 3.2-1.9 4.4-3.3 1.2-1.4 2.1-3 2.8-4.8.6-1.8 1-3.7 1-5.7 0-1.9-.4-3.6-1.2-5-.8-1.5-2-2.6-3.6-3.4-1.6-.8-3.5-1.2-5.7-1.2-2.2 0-4.1.4-5.8 1.2-1.7.8-3.2 1.9-4.4 3.3-1.2 1.4-2.2 3-2.8 4.8s-1 3.8-1 5.7c0 1.9.4 3.6 1.2 5 .8 1.5 2 2.6 3.6 3.4C831.4 471.5 833.3 471.8 835.5 471.8zM879.4 479.4c-3.8 0-6.9-.7-9.3-2.2-2.5-1.5-4.2-3.5-5.3-6.1s-1.2-5.7-.5-9.3l4.3-21.6h9l-4.3 21.4c-.3 1.7-.4 3.2-.3 4.5.2 1.3.5 2.4 1.1 3.2.6.8 1.4 1.5 2.5 1.9 1.1.4 2.3.6 3.8.6 1.8 0 3.3-.3 4.7-1.1 1.3-.7 2.4-1.8 3.3-3.3.9-1.5 1.6-3.5 2-5.8l4.3-21.4h8.7l-4.4 21.9c-1.1 5.7-3.3 10-6.6 12.9C889.1 478 884.7 479.4 879.4 479.4zM904.5 478.8l7.7-38.5h15.7c4.8 0 8.5 1.1 11.1 3.2 2.6 2.1 3.9 5 3.9 8.8 0 3.2-.8 6-2.3 8.4-1.5 2.4-3.7 4.2-6.5 5.5-2.8 1.3-6.1 1.9-9.9 1.9h-12.5l4.7-3.9-2.9 14.7L904.5 478.8 904.5 478.8zM916.2 465.1l-3.1-4.2h11.5c3 0 5.3-.7 6.9-2 1.6-1.4 2.4-3.3 2.4-5.9 0-1.9-.6-3.3-1.9-4.2s-3-1.4-5.3-1.4h-10.8l4.7-4.4L916.2 465.1zM929.3 478.8l-7.9-14h9.3l7.9 14H929.3zM980.5 479.4c-3.9 0-7.2-.7-10.1-2.1-2.8-1.4-5-3.4-6.5-5.9-1.5-2.5-2.3-5.4-2.3-8.7 0-3.3.6-6.3 1.7-9.2 1.1-2.8 2.7-5.3 4.9-7.3 2.1-2.1 4.6-3.7 7.5-4.9 2.9-1.2 6.2-1.8 9.7-1.8 3.9 0 7.2.7 10.1 2.1 2.8 1.4 5 3.4 6.5 5.9 1.5 2.5 2.3 5.4 2.3 8.7 0 3.3-.6 6.3-1.7 9.2-1.1 2.8-2.8 5.3-4.9 7.3-2.1 2.1-4.6 3.7-7.5 4.9C987.3 478.8 984 479.4 980.5 479.4zM981.2 471.8c2.2 0 4.1-.4 5.9-1.2 1.7-.8 3.2-1.9 4.4-3.3 1.2-1.4 2.1-3 2.8-4.8.6-1.8 1-3.7 1-5.7 0-1.9-.4-3.6-1.2-5-.8-1.5-2-2.6-3.6-3.4-1.6-.8-3.5-1.2-5.7-1.2-2.2 0-4.1.4-5.8 1.2-1.7.8-3.2 1.9-4.4 3.3-1.2 1.4-2.2 3-2.8 4.8-.6 1.8-1 3.8-1 5.7 0 1.9.4 3.6 1.2 5 .8 1.5 2 2.6 3.6 3.4C977.1 471.5 979 471.8 981.2 471.8zM1006.9 478.8l7.7-38.5h15.7c4.8 0 8.5 1.1 11.1 3.2 2.6 2.1 3.9 5 3.9 8.8 0 3.2-.8 6-2.3 8.4-1.5 2.4-3.7 4.2-6.5 5.5-2.8 1.3-6.1 1.9-9.9 1.9h-12.5l4.7-3.9-2.9 14.7L1006.9 478.8 1006.9 478.8zM1018.6 465.1l-3.1-4.2h11.5c3 0 5.3-.7 6.9-2 1.6-1.4 2.4-3.3 2.4-5.9 0-1.9-.6-3.3-1.9-4.2-1.3-.9-3-1.4-5.3-1.4h-10.8l4.7-4.4L1018.6 465.1zM1031.7 478.8l-7.9-14h9.3l7.9 14H1031.7zM1047.3 478.8l7.7-38.5h16.1c4 0 7.4.6 10.2 2s5 3.2 6.5 5.6c1.5 2.4 2.3 5.3 2.3 8.6 0 3.4-.6 6.5-1.7 9.2-1.2 2.7-2.8 5.1-4.9 7.1-2.1 2-4.7 3.5-7.6 4.5-2.9 1.1-6.2 1.6-9.7 1.6L1047.3 478.8 1047.3 478.8zM1057.7 471.5h8.7c3.1 0 5.8-.6 8-1.9s3.9-3 5-5.2c1.2-2.2 1.7-4.7 1.7-7.5 0-1.9-.4-3.5-1.2-4.9-.8-1.4-2-2.4-3.6-3.2-1.7-.8-3.6-1.1-6.1-1.1h-7.7L1057.7 471.5zM1103 471.6h21l-1.5 7.2h-29.8l7.7-38.5h29.1l-1.5 7.2h-20.2L1103 471.6zM1105.6 455.8h18.5l-1.4 6.9h-18.5L1105.6 455.8zM1129.6 478.8l7.7-38.5h15.7c4.8 0 8.5 1.1 11.1 3.2 2.6 2.1 3.9 5 3.9 8.8 0 3.2-.8 6-2.3 8.4-1.5 2.4-3.7 4.2-6.5 5.5-2.8 1.3-6.1 1.9-9.9 1.9h-12.5l4.7-3.9-2.9 14.7L1129.6 478.8 1129.6 478.8zM1141.3 465.1l-3.1-4.2h11.5c3 0 5.3-.7 6.9-2 1.6-1.4 2.4-3.3 2.4-5.9 0-1.9-.6-3.3-1.9-4.2s-3-1.4-5.3-1.4H1141l4.7-4.4L1141.3 465.1zM1154.4 478.8l-7.9-14h9.3l7.9 14H1154.4z"
            class="color006ad3 svgShape"></path>
    </g>
    <circle cx="60.2" cy="608.4" r="43.2" fill="#293573" class="colorffc000 svgShape"></circle>
    <path fill="#293573"
        d="M519.9,245.1c-22.1,5.4-26.5,9.8-32,32c-5.4-22.1-9.8-26.5-32-32c22.1-5.4,26.5-9.8,32-32
C493.3,235.3,497.7,239.7,519.9,245.1z"
        class="colorffc000 svgShape"></path>
    <g fill="#a1abe6" class="color000000 svgShape">
        <path fill="#acbaff"
            d="M368.1,1422c0,0-14.9-30.6,9.3-51.8c24.1-21.3,28.4-19.4,37.4-36.7c9-17.3,17-36.5,34.3-40.8
    c17.3-4.3,32.6,2.3,45.9,1.2c16.5-1.4,21.2-11.5,43.7-15.5c21.8-3.8,37.1,11.7,46.4,28.4s3.7,17.2,30.3,22.8
    c26.6,5.6,33.9,23.7,36,40.5c2,16.2,31.3,9,17.1,51.8L368.1,1422L368.1,1422z"
            class="color006b27 svgShape"></path>
        <line x1="556.8" x2="523.1" y1="1290.2" y2="1422" fill="none" stroke="#7c8cec"
            stroke-miterlimit="10" stroke-width="1.875" class="colorStrokeffffff svgStroke"></line>
        <line x1="621.3" x2="538.2" y1="1346.9" y2="1422" fill="none" stroke="#7c8cec"
            stroke-miterlimit="10" stroke-width="1.875" class="colorStrokeffffff svgStroke"></line>
        <line x1="660.2" x2="552.9" y1="1395.2" y2="1422" fill="none" stroke="#7c8cec"
            stroke-miterlimit="10" stroke-width="1.875" class="colorStrokeffffff svgStroke"></line>
        <line x1="449.8" x2="511.9" y1="1305.7" y2="1422" fill="none" stroke="#7c8cec"
            stroke-miterlimit="10" stroke-width="1.875" class="colorStrokeffffff svgStroke"></line>
        <line x1="393" x2="497" y1="1377" y2="1422" fill="none" stroke="#7c8cec"
            stroke-miterlimit="10" stroke-width="1.875" class="colorStrokeffffff svgStroke"></line>
    </g>
</svg>